<?xml version="1.0" encoding="UTF-8"?>
<svg version="1.1" xmlns="http://www.w3.org/2000/svg" width="500" height="500">
<path d="M0 0 C1.50790579 -0.00543508 3.01580626 -0.01256544 4.5236969 -0.02124023 C8.57959088 -0.03931217 12.63507308 -0.03247369 16.69097328 -0.01972389 C20.9596419 -0.00951171 25.22827806 -0.01901216 29.49694824 -0.02526855 C36.66192883 -0.03252125 43.82674384 -0.02302005 50.99169922 -0.00390625 C59.24485975 0.01785795 67.49762485 0.01080488 75.75077581 -0.01121187 C82.86968767 -0.02943402 89.98848133 -0.03189107 97.107409 -0.0214572 C101.34481939 -0.01525952 105.58204466 -0.01428281 109.81944275 -0.02760315 C113.80552885 -0.03926095 117.79111112 -0.03095751 121.77714348 -0.00802612 C123.22943732 -0.00279149 124.68177446 -0.00416138 126.13405037 -0.01307678 C141.94743357 -0.10111395 155.56023362 3.71710902 167.18945312 14.83007812 C169.50195312 17.51757812 169.50195312 17.51757812 169.50195312 19.51757812 C170.16195312 19.51757812 170.82195312 19.51757812 171.50195312 19.51757812 C172.63886665 21.82484381 173.76134257 24.13753001 174.87695312 26.45507812 C175.35261719 27.41510742 175.35261719 27.41510742 175.83789062 28.39453125 C180.38225549 37.90929519 180.79688963 46.93477224 180.77661133 57.3840332 C180.78096655 58.76489027 180.78615238 60.14574493 180.792099 61.52659607 C180.80541473 65.25405026 180.8060759 68.98140258 180.8035357 72.70887589 C180.8024607 75.83226216 180.80736292 78.95562827 180.81214112 82.07901019 C180.82321112 89.45478862 180.82368819 96.83051612 180.81762695 104.20629883 C180.81159185 111.78791328 180.82389211 119.36934193 180.84519702 126.95092469 C180.86287475 133.48458492 180.86880461 140.01818634 180.86555928 146.55186957 C180.86375573 150.44332576 180.86628875 154.33464946 180.88027382 158.22608376 C180.89294819 161.88945999 180.89081851 165.55254903 180.87786293 169.2159214 C180.8744104 171.18162425 180.88560452 173.14733628 180.89743042 175.11300659 C180.83912852 185.073089 179.3516536 194.40714349 175.00195312 203.45507812 C174.59976563 204.30972656 174.19757813 205.164375 173.78320312 206.04492188 C172.44921608 208.61935419 171.1211792 211.11027127 169.50195312 213.51757812 C168.84195313 213.51757812 168.18195313 213.51757812 167.50195312 213.51757812 C167.26605469 214.09507812 167.03015625 214.67257812 166.78710938 215.26757812 C162.06398214 223.5366398 151.93497876 227.78216345 143.27372742 230.54873657 C136.87073485 232.11898469 130.30620124 231.81338586 123.75512695 231.80810547 C122.26766627 231.8140979 120.78020869 231.82090508 119.29275513 231.82846069 C115.26974022 231.84605794 111.24681052 231.85081349 107.22376084 231.85209227 C104.70426131 231.8535183 102.18478313 231.85779649 99.66528893 231.8630867 C90.85814424 231.88156815 82.05105992 231.88975992 73.24389648 231.88818359 C65.06300559 231.88698359 56.88237911 231.90806304 48.70155507 231.93967092 C41.6549519 231.96591629 34.60843463 231.9765474 27.56178302 231.97527277 C23.36339327 231.97476545 19.16523858 231.9803204 14.96689796 232.00162888 C11.01292799 232.02115053 7.05941389 232.02104194 3.10542679 232.00659561 C1.66440977 232.00452334 0.22336315 232.0091126 -1.21760368 232.02131653 C-12.05376998 232.1070556 -21.82606737 230.64850398 -31.49804688 225.51757812 C-31.49804688 224.85757813 -31.49804688 224.19757813 -31.49804688 223.51757812 C-32.48804688 223.51757812 -33.47804687 223.51757812 -34.49804688 223.51757812 C-34.49804688 222.85757813 -34.49804688 222.19757813 -34.49804688 221.51757812 C-35.11679688 221.20820313 -35.73554688 220.89882813 -36.37304688 220.58007812 C-37.74804688 219.89257812 -39.12304688 219.20507812 -40.49804688 218.51757812 C-40.49804688 217.85757813 -40.49804688 217.19757813 -40.49804688 216.51757812 C-41.15804687 216.51757812 -41.81804687 216.51757812 -42.49804688 216.51757812 C-42.49804688 215.85757813 -42.49804688 215.19757813 -42.49804688 214.51757812 C-43.15804687 214.51757812 -43.81804687 214.51757812 -44.49804688 214.51757812 C-55.32979109 200.96455827 -56.64960588 186.07392509 -56.64331055 169.40136719 C-56.64666916 168.1139563 -56.65002777 166.82654541 -56.65348816 165.50012207 C-56.6622652 161.99162476 -56.66466362 158.48315189 -56.66530395 154.97464466 C-56.6660181 152.77559218 -56.6681593 150.57654578 -56.67080116 148.37749481 C-56.68003415 140.68557852 -56.68413867 132.99367947 -56.68334961 125.30175781 C-56.68274955 118.16440924 -56.69329251 111.02713641 -56.70909327 103.88980699 C-56.72222703 97.73490493 -56.72753106 91.58002747 -56.7268942 85.42511153 C-56.7266409 81.76112557 -56.72939823 78.097207 -56.74007225 74.43323517 C-56.75167506 70.33922764 -56.74697093 66.2453868 -56.7409668 62.15136719 C-56.7465863 60.95924622 -56.75220581 59.76712524 -56.75799561 58.53887939 C-56.69816556 42.386921 -54.28632883 26.61047467 -42.61523438 14.57617188 C-40.64059903 12.78351273 -38.621059 11.13106734 -36.49804688 9.51757812 C-35.89347656 9.05480469 -35.28890625 8.59203125 -34.66601562 8.11523438 C-24.23137045 0.88786961 -12.32348601 -0.07565288 0 0 Z " fill="#41B3E1" transform="translate(187.498046875,86.482421875)"/>
<path d="M0 0 C4.62 0 9.24 0 14 0 C14 3.96 14 7.92 14 12 C17.96 12 21.92 12 26 12 C26 8.04 26 4.08 26 0 C30.62 0 35.24 0 40 0 C40 3.96 40 7.92 40 12 C43.63 12 47.26 12 51 12 C51 8.04 51 4.08 51 0 C55.95 0 60.9 0 66 0 C66.08083627 4.08372883 66.14042706 8.16586209 66.1875 12.25 C66.21263672 13.40886719 66.23777344 14.56773437 66.26367188 15.76171875 C66.27333984 16.87675781 66.28300781 17.99179688 66.29296875 19.140625 C66.3086792 20.16704102 66.32438965 21.19345703 66.34057617 22.25097656 C65.95205117 25.38702783 65.20032917 26.76255846 63 29 C62.34 29 61.68 29 61 29 C62.21942953 72.04080888 62.21942953 72.04080888 65 115 C66.32 115 67.64 115 69 115 C69.28932029 107.38123248 68.7936441 99.95308582 68.0625 92.375 C66.76820842 78.93929294 65.73217944 65.51005938 66 52 C67.32 52 68.64 52 70 52 C69.98839844 51.21753906 69.97679687 50.43507812 69.96484375 49.62890625 C69.95582031 48.61699219 69.94679688 47.60507813 69.9375 46.5625 C69.92589844 45.55316406 69.91429687 44.54382813 69.90234375 43.50390625 C70 41 70 41 71 40 C72.99799572 39.90126184 74.99957158 39.87028201 77 39.875 C78.093125 39.87242187 79.18625 39.86984375 80.3125 39.8671875 C83 40 83 40 84 41 C84.07226502 42.85287502 84.0838122 44.70833878 84.0625 46.5625 C84.05347656 47.57441406 84.04445313 48.58632812 84.03515625 49.62890625 C84.02355469 50.41136719 84.01195312 51.19382813 84 52 C86.97 52 89.94 52 93 52 C93 48.04 93 44.08 93 40 C97.29 40 101.58 40 106 40 C106.495 45.94 106.495 45.94 107 52 C109.64 52 112.28 52 115 52 C115.33 48.37 115.66 44.74 116 41 C119.49578573 40.30084285 121.99406793 39.87765516 125.42578125 39.90234375 C126.22177734 39.90556641 127.01777344 39.90878906 127.83789062 39.91210938 C128.65451172 39.92048828 129.47113281 39.92886719 130.3125 39.9375 C131.14845703 39.94201172 131.98441406 39.94652344 132.84570312 39.95117188 C134.89716649 39.96289452 136.94859273 39.98082797 139 40 C129.34607557 59.81020239 116.15836007 78.05100604 101 94 C99.27139056 95.97103638 97.5622249 97.95652276 95.86328125 99.953125 C90.77831633 105.5391242 85.45523 110.4539014 79.375 114.9375 C78.67769775 115.45401123 77.98039551 115.97052246 77.26196289 116.50268555 C54.91663574 132.86479589 29.09906968 144.80410692 1 144 C0.86671178 134.19591102 1.0709389 124.42268436 1.4375 114.625 C1.47673584 113.53268066 1.51597168 112.44036133 1.55639648 111.31494141 C1.74503245 106.54943938 1.98329241 101.81967105 2.50390625 97.078125 C3.18359843 90.77529442 3.31593133 84.45832573 3.5 78.125 C3.69829753 71.34616224 3.9088402 64.59548412 4.5234375 57.83984375 C5.04306 52.02934385 5.14911193 46.26856777 5.125 40.4375 C5.12886719 39.46748047 5.13273438 38.49746094 5.13671875 37.49804688 C5.13478516 36.10489258 5.13478516 36.10489258 5.1328125 34.68359375 C5.13168457 33.85400146 5.13055664 33.02440918 5.12939453 32.16967773 C5.08317917 29.81755419 5.08317917 29.81755419 4 27 C3.34 27 2.68 27 2 27 C-0.26598448 23.60102327 -0.23742654 22.43680827 -0.1953125 18.45703125 C-0.18886719 17.38388672 -0.18242187 16.31074219 -0.17578125 15.20507812 C-0.15064453 13.52575195 -0.15064453 13.52575195 -0.125 11.8125 C-0.11597656 10.68134766 -0.10695312 9.55019531 -0.09765625 8.38476562 C-0.07406965 5.58975371 -0.03819841 2.79485041 0 0 Z " fill="#013D6B" transform="translate(157,132)"/>
<path d="M0 0 C1 1 1 1 1.11303711 3.96704102 C1.1053833 5.27858154 1.09772949 6.59012207 1.08984375 7.94140625 C1.08415627 9.01002647 1.08415627 9.01002647 1.07835388 10.10023499 C1.02352963 17.62835761 0.84878801 25.15358555 0.62768555 32.6784668 C0.56104264 34.98800549 0.50216182 37.29767167 0.44335938 39.60742188 C0.40150804 41.08074249 0.35920855 42.55405046 0.31640625 44.02734375 C0.26141968 46.00335571 0.26141968 46.00335571 0.20532227 48.01928711 C0 51 0 51 -1 52 C-3.29296875 52.4296875 -3.29296875 52.4296875 -6 52 C-8.23828125 49.4453125 -8.23828125 49.4453125 -10.3125 46.125 C-11.35857422 44.48917969 -11.35857422 44.48917969 -12.42578125 42.8203125 C-14 40 -14 40 -14 38 C-17.03243106 38.6605661 -17.03243106 38.6605661 -18.0715332 40.68310547 C-18.55626099 41.76422607 -18.55626099 41.76422607 -19.05078125 42.8671875 C-19.41631104 43.66487549 -19.78184082 44.46256348 -20.15844727 45.28442383 C-20.53928467 46.13931396 -20.92012207 46.9942041 -21.3125 47.875 C-22.11749706 49.627358 -22.92477795 51.37866871 -23.734375 53.12890625 C-24.12431641 53.97469238 -24.51425781 54.82047852 -24.91601562 55.69189453 C-27.05784665 60.25245095 -29.49885615 64.62937873 -32 69 C-32.6496875 70.14082031 -33.299375 71.28164062 -33.96875 72.45703125 C-35.35343098 74.88550367 -36.74378734 77.31062779 -38.13671875 79.734375 C-39.58160656 82.26671507 -40.9897547 84.81009351 -42.375 87.375 C-48.99361352 99.28407716 -56.47481694 110.38531129 -65 121 C-65.74765625 121.94101563 -66.4953125 122.88203125 -67.265625 123.8515625 C-69.16884795 126.24116465 -71.08244577 128.62189781 -73 131 C-73.63164062 131.8146875 -74.26328125 132.629375 -74.9140625 133.46875 C-91.91449308 154.09848599 -116.87512196 173.24356602 -143 180 C-143.99 179.67 -144.98 179.34 -146 179 C-145.34 179 -144.68 179 -144 179 C-144.33 178.01 -144.66 177.02 -145 176 C-145 169.33333333 -145 162.66666667 -145 156 C-145.99 156 -146.98 156 -148 156 C-148.33 156.99 -148.66 157.98 -149 159 C-150.32 158.67 -151.64 158.34 -153 158 C-153.33 156.68 -153.66 155.36 -154 154 C-153.42258057 153.8047876 -152.84516113 153.6095752 -152.25024414 153.40844727 C-133.38746931 146.96517596 -116.79430837 139.21511036 -101 127 C-100.01128906 126.23558594 -99.02257812 125.47117187 -98.00390625 124.68359375 C-69.8004709 102.19125626 -51.50979752 70.9155735 -34 40 C-33.22994629 38.65808594 -33.22994629 38.65808594 -32.44433594 37.2890625 C-31.98575195 36.48210937 -31.52716797 35.67515625 -31.0546875 34.84375 C-30.65491699 34.14443359 -30.25514648 33.44511719 -29.84326172 32.72460938 C-28.8535799 31.02050192 -28.8535799 31.02050192 -29 29 C-29.57032959 28.94465088 -30.14065918 28.88930176 -30.72827148 28.83227539 C-33.29848753 28.58026257 -35.86797631 28.32147272 -38.4375 28.0625 C-39.33533203 27.97548828 -40.23316406 27.88847656 -41.15820312 27.79882812 C-42.01220703 27.71181641 -42.86621094 27.62480469 -43.74609375 27.53515625 C-44.53685303 27.456604 -45.3276123 27.37805176 -46.14233398 27.29711914 C-48 27 -48 27 -49 26 C-49.04063832 24.33382885 -49.042721 22.66611905 -49 21 C-27 10 -27 10 -24.15234375 8.58984375 C-21.71087716 7.35852169 -19.29327557 6.09902268 -16.87890625 4.81640625 C-15.80672852 4.25663086 -15.80672852 4.25663086 -14.71289062 3.68554688 C-13.30847615 2.95208791 -11.90968811 2.20772449 -10.51757812 1.45117188 C-6.64193142 -0.55454319 -4.18797426 -1.57342584 0 0 Z " fill="#F3FAFB" transform="translate(337,119)"/>
<path d="M0 0 C1.093125 0.00257813 2.18625 0.00515625 3.3125 0.0078125 C4.405625 0.00523437 5.49875 0.00265625 6.625 0 C9.3125 0.1328125 9.3125 0.1328125 10.3125 1.1328125 C10.40675595 3.28024799 10.42992648 5.43082276 10.42602539 7.58032227 C10.42617142 8.25346466 10.42631744 8.92660706 10.4264679 9.62014771 C10.42576878 11.85487034 10.41797652 14.0895106 10.41015625 16.32421875 C10.40829206 17.86978612 10.40686816 19.41535407 10.40586853 20.96092224 C10.4020434 25.03638327 10.39221317 29.11180887 10.38116455 33.18725586 C10.37095032 37.34293132 10.36637089 41.49861249 10.36132812 45.65429688 C10.35059089 53.81381837 10.33351454 61.97331103 10.3125 70.1328125 C8.18777424 70.18667879 6.06266348 70.22554321 3.9375 70.2578125 C2.75414062 70.28101563 1.57078125 70.30421875 0.3515625 70.328125 C-2.6875 70.1328125 -2.6875 70.1328125 -4.6875 68.1328125 C-5.35910156 68.62007813 -6.03070313 69.10734375 -6.72265625 69.609375 C-10.40147716 71.49967823 -13.00441298 71.53271031 -17.125 71.5078125 C-19.04119141 71.51941406 -19.04119141 71.51941406 -20.99609375 71.53125 C-26.04807762 70.9859565 -29.31685127 69.17711629 -33.3125 66.1328125 C-38.88012035 59.1000289 -40.37918953 51.18519895 -40.07421875 42.3515625 C-39.28724421 35.80139055 -37.42322949 30.26909495 -33.25 25.1328125 C-32.404375 24.4728125 -31.55875 23.8128125 -30.6875 23.1328125 C-29.98625 22.5553125 -29.285 21.9778125 -28.5625 21.3828125 C-22.10253138 18.57413049 -14.49247898 18.57333815 -7.6875 20.1328125 C-6.6975 20.7928125 -5.7075 21.4528125 -4.6875 22.1328125 C-4.64991577 21.18643921 -4.64991577 21.18643921 -4.61157227 20.22094727 C-4.49595863 17.37884425 -4.37307684 14.53710167 -4.25 11.6953125 C-4.21068359 10.70208984 -4.17136719 9.70886719 -4.13085938 8.68554688 C-4.06801758 7.26918945 -4.06801758 7.26918945 -4.00390625 5.82421875 C-3.96724854 4.94967041 -3.93059082 4.07512207 -3.89282227 3.17407227 C-3.57774141 0.04162162 -3.19299208 0.15779321 0 0 Z M-21.6875 33.1328125 C-25.55217409 36.99748659 -26.00734378 40.36024039 -26.1875 45.6328125 C-25.96796527 52.5167944 -24.62095888 55.19935362 -19.8125 60.0078125 C-16.92591638 61.53600383 -14.91240867 61.46874049 -11.6875 61.1328125 C-9.38519234 60.23450234 -9.38519234 60.23450234 -7.6875 59.1328125 C-7.6875 58.4728125 -7.6875 57.8128125 -7.6875 57.1328125 C-7.0275 57.1328125 -6.3675 57.1328125 -5.6875 57.1328125 C-2.97679057 50.6948776 -1.79251653 45.93649224 -3.4375 38.9453125 C-5.46407724 34.3855137 -7.47296912 32.65011269 -12.0625 30.6953125 C-16.51215426 30.00484891 -18.04380586 30.54174111 -21.6875 33.1328125 Z " fill="#154367" transform="translate(266.6875,337.8671875)"/>
<path d="M0 0 C5.28 0 10.56 0 16 0 C17.65589468 4.80081094 19.31053797 9.60201852 20.9621582 14.40429688 C21.52297464 16.03377214 22.0844827 17.66300957 22.64672852 19.29199219 C25.35523158 27.14063218 28.04223281 34.96824222 30.3503418 42.94580078 C31.34029037 46.07598767 32.63739116 49.01523777 34 52 C34.26627197 51.20118408 34.53254395 50.40236816 34.80688477 49.5793457 C35.18127686 48.45616943 35.55566895 47.33299316 35.94140625 46.17578125 C36.35720947 44.92821045 36.7730127 43.68063965 37.20141602 42.39526367 C38.11154764 39.66478632 39.02224562 36.93449874 39.93334961 34.2043457 C42.02731033 27.92830599 44.11797331 21.65134018 46.1875 15.3671875 C46.50775146 14.39740967 46.82800293 13.42763184 47.15795898 12.4284668 C47.75105335 10.63125481 48.34179505 8.83326434 48.92993164 7.03442383 C50.88798795 1.11201205 50.88798795 1.11201205 52 0 C54.35313555 -0.07271741 56.70833668 -0.08370868 59.0625 -0.0625 C60.35285156 -0.05347656 61.64320313 -0.04445313 62.97265625 -0.03515625 C63.97167969 -0.02355469 64.97070312 -0.01195312 66 0 C64.93904957 7.30876962 62.68615449 13.67688114 59.953125 20.48339844 C57.42795339 26.80405757 55.14631626 33.18743871 52.9375 39.625 C50.54837306 46.5684182 48.13204176 53.495999 45.5625 60.375 C45.31556396 61.04096191 45.06862793 61.70692383 44.81420898 62.39306641 C43.12436678 66.87563322 43.12436678 66.87563322 42 68 C39.13732433 68.07325168 36.299281 68.09238205 33.4375 68.0625 C32.63119141 68.05798828 31.82488281 68.05347656 30.99414062 68.04882812 C28.99606244 68.03700518 26.99802217 68.01906914 25 68 C22.92856661 63.23271335 20.96841925 58.43647007 19.109375 53.58203125 C18.71088097 52.54508118 18.71088097 52.54508118 18.30433655 51.48718262 C17.45082943 49.26307161 16.60002525 47.0379439 15.75 44.8125 C15.46031342 44.05488373 15.17062683 43.29726746 14.87216187 42.51669312 C4.06040787 14.21142755 4.06040787 14.21142755 0 0 Z " fill="#103F63" transform="translate(116,340)"/>
<path d="M0 0 C5.17636961 6.34522726 5.6605294 15.1197306 5 23 C3.22446486 24.77553514 0.64338727 24.1303079 -1.7578125 24.1328125 C-3.53285156 24.13474609 -3.53285156 24.13474609 -5.34375 24.13671875 C-6.5915625 24.13285156 -7.839375 24.12898438 -9.125 24.125 C-10.96191406 24.13080078 -10.96191406 24.13080078 -12.8359375 24.13671875 C-18.65534304 24.13042069 -24.272256 24.0707652 -30 23 C-29.34 25.64 -28.68 28.28 -28 31 C-27.34 31 -26.68 31 -26 31 C-26 31.66 -26 32.32 -26 33 C-21.68624314 34.43791895 -17.50320473 34.70667987 -13 34 C-12.38125 33.175 -11.7625 32.35 -11.125 31.5 C-9 29 -9 29 -6.1015625 28.66796875 C-3.05433132 28.68572651 -0.0393428 28.78495216 3 29 C4 32 4 32 2.9375 34.875 C-0.23952964 39.99924136 -4.26875474 43.20056338 -10 45 C-27.04302193 46.61103192 -27.04302193 46.61103192 -33.4921875 41.4921875 C-40.62144854 34.43680481 -42.87917159 27.98848162 -43 18 C-42.37568704 11.2613839 -40.26754769 5.88158585 -37 0 C-36.34 0 -35.68 0 -35 0 C-35 -0.66 -35 -1.32 -35 -2 C-23.19040459 -8.75282716 -10.58802796 -9.19722767 0 0 Z M-26 6 C-27.86679546 8.66685066 -28.96996388 10.90989163 -30 14 C-22.74 14 -15.48 14 -8 14 C-9.81382376 7.90745867 -9.81382376 7.90745867 -14 4 C-19.06737003 2.61798999 -21.91061482 2.59217901 -26 6 Z " fill="#103F63" transform="translate(219,364)"/>
<path d="M0 0 C3.56999784 5.35499675 3.1403513 11.20313426 3.09765625 17.4609375 C3.0962413 18.25150543 3.09482635 19.04207336 3.09336853 19.8565979 C3.08780504 22.36277166 3.07525944 24.86885358 3.0625 27.375 C3.05748028 29.08202995 3.0529182 30.78906132 3.04882812 32.49609375 C3.03784759 36.66409748 3.02060839 40.83203321 3 45 C-0.96 45 -4.92 45 -9 45 C-9.33 44.01 -9.66 43.02 -10 42 C-10.78375 42.474375 -11.5675 42.94875 -12.375 43.4375 C-16.63914341 45.9756806 -19.22881381 46.2189681 -24.25 46.3125 C-25.55453125 46.34988281 -26.8590625 46.38726562 -28.203125 46.42578125 C-32.57518095 45.93549926 -34.62769334 44.76868372 -38 42 C-40.7889794 37.8165309 -41.05292074 33.97454916 -41 29 C-40.21605198 25.25682478 -38.54814817 22.6166667 -36 19.75 C-28.38829322 15.30983771 -19.65457964 14.48545998 -11 14 C-9.699503 11.0605687 -9.699503 11.0605687 -10.8125 8.3125 C-13.42952145 5.54593447 -14.3002023 5.55323843 -18 5.375 C-20.61458308 5.21199998 -20.61458308 5.21199998 -23 6 C-23.46019531 6.83144531 -23.92039062 7.66289062 -24.39453125 8.51953125 C-24.92433594 9.33808594 -25.45414062 10.15664063 -26 11 C-29.13671875 11.48828125 -29.13671875 11.48828125 -32.6875 11.3125 C-34.45673828 11.24482422 -34.45673828 11.24482422 -36.26171875 11.17578125 C-37.16535156 11.11777344 -38.06898438 11.05976563 -39 11 C-38.63348416 3.7918552 -38.63348416 3.7918552 -35.75 0.1875 C-25.67098412 -7.82989899 -10.13238185 -8.98924134 0 0 Z M-26 26 C-28.31140296 28.76148156 -28.31140296 28.76148156 -27.6875 31.5625 C-27.08760162 33.98114611 -27.08760162 33.98114611 -26 36 C-19.27222621 36.50863391 -19.27222621 36.50863391 -13 34.4375 C-10.53807831 31.43703294 -9.79697334 28.76751033 -9 25 C-10.54236225 23.45763775 -11.98456679 23.83063926 -14.125 23.8125 C-18.47222423 23.86796698 -21.94183664 24.42642645 -26 26 Z " fill="#134165" transform="translate(357,363)"/>
<path d="M0 0 C3.21422706 4.01778382 5 6.77069145 5 12 C2.47524538 13.26237731 0.68799534 13.09856404 -2.125 13.0625 C-3.03507812 13.05347656 -3.94515625 13.04445313 -4.8828125 13.03515625 C-5.93082031 13.01775391 -5.93082031 13.01775391 -7 13 C-7.66 11.35 -8.32 9.7 -9 8 C-10.258125 7.814375 -11.51625 7.62875 -12.8125 7.4375 C-13.52019531 7.33308594 -14.22789062 7.22867187 -14.95703125 7.12109375 C-17.2025342 6.86095201 -17.2025342 6.86095201 -20 8 C-20.83333333 9.91666667 -20.83333333 9.91666667 -21 12 C-20.21562143 14.138937 -20.21562143 14.138937 -18.31347656 14.62255859 C-17.59643555 14.79609863 -16.87939453 14.96963867 -16.140625 15.1484375 C-15.35429687 15.34953125 -14.56796875 15.550625 -13.7578125 15.7578125 C-12.10247884 16.16519991 -10.44623862 16.56892338 -8.7890625 16.96875 C-2.56534021 18.57029417 1.32551813 20.48827719 5 26 C5.62723172 30.94522694 6.1235273 36.42987102 4.08984375 41.08203125 C1.09992816 44.87951246 -3.15363509 47.55781853 -7.94873047 48.30273438 C-10.10024787 48.43843846 -12.21946244 48.46729566 -14.375 48.4375 C-15.12869873 48.43065186 -15.88239746 48.42380371 -16.65893555 48.41674805 C-22.41382035 48.25011165 -26.24942354 47.44649664 -31 44 C-35.37108484 39.29267787 -36 37.65019169 -36 31 C-30.06 30.505 -30.06 30.505 -24 30 C-23.608125 30.94875 -23.21625 31.8975 -22.8125 32.875 C-21.29326418 36.06619972 -21.29326418 36.06619972 -18.75 37.375 C-15.43618132 38.12814061 -12.38704115 38.13282514 -9 38 C-9 37.34 -9 36.68 -9 36 C-8.34 36 -7.68 36 -7 36 C-7.41650915 33.02875785 -7.41650915 33.02875785 -9 30 C-11.70659997 28.77717513 -13.91197486 28.00166202 -16.75 27.3125 C-18.16279314 26.93860145 -19.57428682 26.55975508 -20.984375 26.17578125 C-21.66177734 25.99225098 -22.33917969 25.8087207 -23.03710938 25.61962891 C-25.86031884 24.72842174 -28.40742522 23.41450228 -31 22 C-31 21.34 -31 20.68 -31 20 C-31.66 20 -32.32 20 -33 20 C-35.0088583 15.85672976 -35.40215934 12.58461644 -35 8 C-33.19619314 3.53343062 -31.30353899 0.53569266 -27.3125 -2.125 C-19.20597159 -5.19233507 -7.11955761 -5.25491157 0 0 Z " fill="#1B476B" transform="translate(400,361)"/>
<path d="M0 0 C1.31157516 2.62315032 0.89649988 4.23033436 0.5625 7.125 C0.46066406 8.03507812 0.35882813 8.94515625 0.25390625 9.8828125 C0.17011719 10.58148438 0.08632813 11.28015625 0 12 C-0.90363281 12.17015625 -1.80726563 12.3403125 -2.73828125 12.515625 C-4.50751953 12.87914062 -4.50751953 12.87914062 -6.3125 13.25 C-7.48425781 13.48203125 -8.65601563 13.7140625 -9.86328125 13.953125 C-13.4669022 15.15582788 -14.17621226 15.74704525 -16 19 C-16.50486969 22.38526241 -16.50486969 22.38526241 -16.51171875 26.171875 C-16.52966995 26.8542926 -16.54762115 27.53671021 -16.56611633 28.23980713 C-16.62010383 30.4098094 -16.65407583 32.57959325 -16.6875 34.75 C-16.72068352 36.22529074 -16.75517415 37.70055269 -16.79101562 39.17578125 C-16.87827569 42.7838835 -16.93843475 46.39100249 -17 50 C-21.62 50 -26.24 50 -31 50 C-31 33.83 -31 17.66 -31 1 C-28.51245214 -0.24377393 -26.77344699 -0.13306235 -24 -0.125 C-23.113125 -0.12757813 -22.22625 -0.13015625 -21.3125 -0.1328125 C-19 0 -19 0 -17 1 C-16.67 1.99 -16.34 2.98 -16 4 C-14.9171875 3.0409375 -14.9171875 3.0409375 -13.8125 2.0625 C-9.15765696 -1.35105156 -5.54402745 -1.38600686 0 0 Z " fill="#1B4B6F" transform="translate(314,358)"/>
<path d="M0 0 C0 16.17 0 32.34 0 49 C-3 50 -3 50 -14 49 C-14 32.83 -14 16.66 -14 0 C-5 -1 -5 -1 0 0 Z " fill="#1B486C" transform="translate(111,359)"/>
<path d="M0 0 C0.99 0 1.98 0 3 0 C4.25 6.625 4.25 6.625 2 10 C0.02880859 10.43237305 0.02880859 10.43237305 -2.3515625 10.51171875 C-3.62773437 10.56489258 -3.62773437 10.56489258 -4.9296875 10.61914062 C-5.81914062 10.64169922 -6.70859375 10.66425781 -7.625 10.6875 C-8.5221875 10.72166016 -9.419375 10.75582031 -10.34375 10.79101562 C-12.56237538 10.87362402 -14.7805994 10.94272719 -17 11 C-18.32014582 14.96043746 -17.27727477 17.09721599 -16 21 C-15.67 21.66 -15.34 22.32 -15 23 C-13.10466658 23.46523063 -13.10466658 23.46523063 -10.9375 23.625 C-9.638125 23.74875 -8.33875 23.8725 -7 24 C-6.896875 24.639375 -6.79375 25.27875 -6.6875 25.9375 C-6.460625 26.618125 -6.23375 27.29875 -6 28 C-5.01 28.33 -4.02 28.66 -3 29 C-5.38858361 32.05544706 -6.56060758 32.93255376 -10.4609375 33.53125 C-11.75257813 33.5209375 -13.04421875 33.510625 -14.375 33.5 C-15.66148437 33.5103125 -16.94796875 33.520625 -18.2734375 33.53125 C-22.54086414 32.92289568 -24.6807564 31.70239302 -28 29 C-30.7889794 24.8165309 -31.05292074 20.97454916 -31 16 C-30.21605198 12.25682478 -28.54814817 9.6166667 -26 6.75 C-18.98108493 2.65563287 -11.11743805 1.68687309 -3.1171875 1.2109375 C-1.01620719 1.2273807 -1.01620719 1.2273807 0 0 Z " fill="#0D3B5F" transform="translate(347,376)"/>
<path d="M0 0 C1.75 0.875 1.75 0.875 3.75 3.875 C4.37723172 8.82022694 4.8735273 14.30487102 2.83984375 18.95703125 C-0.15007184 22.75451246 -4.40363509 25.43281853 -9.19873047 26.17773438 C-11.35024787 26.31343846 -13.46946244 26.34229566 -15.625 26.3125 C-16.37869873 26.30565186 -17.13239746 26.29880371 -17.90893555 26.29174805 C-23.66382035 26.12511165 -27.49942354 25.32149664 -32.25 21.875 C-36.62108484 17.16767787 -37.25 15.52519169 -37.25 8.875 C-31.31 8.38 -31.31 8.38 -25.25 7.875 C-24.858125 8.82375 -24.46625 9.7725 -24.0625 10.75 C-22.54326418 13.94119972 -22.54326418 13.94119972 -20 15.25 C-16.68618132 16.00314061 -13.63704115 16.00782514 -10.25 15.875 C-10.25 15.215 -10.25 14.555 -10.25 13.875 C-9.59 13.875 -8.93 13.875 -8.25 13.875 C-8.435625 12.8025 -8.62125 11.73 -8.8125 10.625 C-9.45437956 5.12317518 -9.45437956 5.12317518 -8.25 2.875 C-5.41378364 1.04721612 -3.42320141 -0.19017786 0 0 Z " fill="#0F3E61" transform="translate(401.25,383.125)"/>
<path d="M0 0 C2.95835047 1.38672678 3.62106542 2.99159431 5 5.9375 C6.93510048 11.94649624 7.52890105 17.6275875 7 23.9375 C6 24.9375 6 24.9375 3.61083984 24.97509766 C2.57137207 24.93433105 1.5319043 24.89356445 0.4609375 24.8515625 C-1.24642578 24.78582031 -1.24642578 24.78582031 -2.98828125 24.71875 C-4.18839844 24.6671875 -5.38851562 24.615625 -6.625 24.5625 C-8.39037109 24.49675781 -8.39037109 24.49675781 -10.19140625 24.4296875 C-15.85795278 24.20022105 -21.40889126 23.90487658 -27 22.9375 C-27.103125 22.31875 -27.20625 21.7 -27.3125 21.0625 C-27.87525373 18.57223516 -27.87525373 18.57223516 -31 16.9375 C-29 14.9375 -29 14.9375 -26.66162109 14.71044922 C-25.70852051 14.72092285 -24.75541992 14.73139648 -23.7734375 14.7421875 C-22.2265625 14.75185547 -22.2265625 14.75185547 -20.6484375 14.76171875 C-19.02808594 14.78685547 -19.02808594 14.78685547 -17.375 14.8125 C-16.28703125 14.82152344 -15.1990625 14.83054687 -14.078125 14.83984375 C-11.38519848 14.86346591 -8.69270745 14.89640444 -6 14.9375 C-6 13.6175 -6 12.2975 -6 10.9375 C-5.34 10.9375 -4.68 10.9375 -4 10.9375 C-4.33 7.9675 -4.66 4.9975 -5 1.9375 C-2 -0.0625 -2 -0.0625 0 0 Z " fill="#063459" transform="translate(217,363.0625)"/>
<path d="M0 0 C4.62 0 9.24 0 14 0 C12.66607875 9.18923529 9.28819492 17.31632889 5.84423828 25.87353516 C4.12282159 30.20943435 2.5590566 34.60365407 1 39 C0.67 39 0.34 39 0 39 C0.51405169 34.03083364 1.23384882 29.70973649 3 25 C2.34 24.67 1.68 24.34 1 24 C1 22.68 1 21.36 1 20 C0.01 19.67 -0.98 19.34 -2 19 C-2.66 19.66 -3.32 20.32 -4 21 C-6.45246501 13.64260498 -2.89802088 6.73088721 0 0 Z " fill="#0D3D63" transform="translate(168,340)"/>
<path d="M0 0 C0.33 0 0.66 0 1 0 C1.57656577 6.90048188 2.14535774 13.80157432 2.70898438 20.703125 C2.90124387 23.04636828 3.09522222 25.38947123 3.29101562 27.73242188 C3.57363832 31.11812646 3.84988514 34.50430304 4.125 37.890625 C4.21249512 38.92237854 4.29999023 39.95413208 4.39013672 41.01715088 C4.95129514 48.02527997 5.09831997 54.97070703 5 62 C3.34385343 62.38218767 1.67542976 62.71395102 0 63 C-1.72195324 61.27804676 -1.33405828 58.93464564 -1.5 56.578125 C-1.58209717 55.42030518 -1.66419434 54.26248535 -1.7487793 53.06958008 C-1.83168213 51.80911865 -1.91458496 50.54865723 -2 49.25 C-2.08612549 47.96569092 -2.17225098 46.68138184 -2.26098633 45.3581543 C-2.88142165 35.84852524 -3.33718854 26.33569316 -3.6875 16.8125 C-3.73583984 15.56049805 -3.78417969 14.30849609 -3.83398438 13.01855469 C-3.87201172 11.86387695 -3.91003906 10.70919922 -3.94921875 9.51953125 C-3.98362061 8.49964111 -4.01802246 7.47975098 -4.0534668 6.42895508 C-4 4 -4 4 -3 2 C-2.34 2 -1.68 2 -1 2 C-0.67 1.34 -0.34 0.68 0 0 Z " fill="#3FAAD7" transform="translate(222,185)"/>
<path d="M0 0 C-0.598125 0.28875 -1.19625 0.5775 -1.8125 0.875 C-5.97702582 2.95202506 -5.97702582 2.95202506 -8 7 C-7.34 7 -6.68 7 -6 7 C-6 7.66 -6 8.32 -6 9 C-7.45823212 9.0270043 -8.91660675 9.04639787 -10.375 9.0625 C-11.18710937 9.07410156 -11.99921875 9.08570313 -12.8359375 9.09765625 C-15 9 -15 9 -17 8 C-17.33 10.64 -17.66 13.28 -18 16 C-22.29 16 -26.58 16 -31 16 C-30.63348416 8.7918552 -30.63348416 8.7918552 -27.75 5.1875 C-18.78773584 -1.94157376 -10.95690132 -1.18699764 0 0 Z " fill="#133F62" transform="translate(349,358)"/>
<path d="M0 0 C4.0743356 0.84881992 5.54405875 2.30225596 8 5.625 C8.625 8.625 8.625 8.625 8 11.625 C6.0625 14.5625 6.0625 14.5625 3 16.625 C-0.16733566 16.94173357 -3.02707024 16.79898601 -6 15.625 C-8.19875551 12.29229511 -8.56477848 9.57844935 -8 5.625 C-5.54405875 2.30225596 -4.0743356 0.84881992 0 0 Z " fill="#1F4A6D" transform="translate(104,337.375)"/>
<path d="M0 0 C1.75 0.875 1.75 0.875 3.75 3.875 C3.9453125 6.35546875 3.9453125 6.35546875 3.875 9.0625 C3.85695313 9.96355469 3.83890625 10.86460937 3.8203125 11.79296875 C3.78550781 12.82357422 3.78550781 12.82357422 3.75 13.875 C2.76 13.875 1.77 13.875 0.75 13.875 C0.09 16.185 -0.57 18.495 -1.25 20.875 C-4.26031744 21.80923645 -5.11650268 21.91949911 -8.25 20.875 C-10.25 17.875 -10.25 17.875 -10.25 13.875 C-9.59 13.875 -8.93 13.875 -8.25 13.875 C-8.435625 12.8025 -8.62125 11.73 -8.8125 10.625 C-9.45437956 5.12317518 -9.45437956 5.12317518 -8.25 2.875 C-5.41378364 1.04721612 -3.42320141 -0.19017786 0 0 Z " fill="#0C3D62" transform="translate(401.25,383.125)"/>
<path d="M0 0 C4.62 0.66 9.24 1.32 14 2 C14.33 4.64 14.66 7.28 15 10 C11.40772276 12.3948515 8.7176193 12.36703237 4.5625 12.375 C3.24378906 12.40335937 1.92507812 12.43171875 0.56640625 12.4609375 C-3.44160808 11.9429247 -4.57459285 11.1387622 -7 8 C-6.34 7.67 -5.68 7.34 -5 7 C-4.67 6.01 -4.34 5.02 -4 4 C-3.34 4 -2.68 4 -2 4 C-1.34 2.68 -0.68 1.36 0 0 Z " fill="#0B395D" transform="translate(245,397)"/>
<path d="M0 0 C1.82675419 3.65350838 0.45509168 8.05587212 0 12 C-5.94 12.495 -5.94 12.495 -12 13 C-13 10 -13 10 -13 7 C-13.66 7 -14.32 7 -15 7 C-14.6875 4.625 -14.6875 4.625 -14 2 C-9.23254806 -1.17830129 -5.54568388 -1.38642097 0 0 Z " fill="#0E3C5E" transform="translate(314,358)"/>
<path d="M0 0 C2.5 -0.3125 2.5 -0.3125 5 0 C7 2 7 2 7.1953125 5.9140625 C7.18200376 7.48449351 7.15813602 9.05486221 7.125 10.625 C7.11597656 11.42679688 7.10695312 12.22859375 7.09765625 13.0546875 C7.07406223 15.03658523 7.03819065 17.01832981 7 19 C4.03 19 1.06 19 -2 19 C-2.05394705 16.39555652 -2.09364469 13.79223002 -2.125 11.1875 C-2.14175781 10.44951172 -2.15851563 9.71152344 -2.17578125 8.95117188 C-2.21074628 5.08753574 -2.19397555 3.29096332 0 0 Z " fill="#43B3E0" transform="translate(187,171)"/>
<path d="M0 0 C1.216875 0.04125 2.43375 0.0825 3.6875 0.125 C3.3575 1.115 3.0275 2.105 2.6875 3.125 C-0.63045179 3.86726604 -3.6922003 4.24913749 -7.08979797 4.24525452 C-8.48844337 4.24731651 -8.48844337 4.24731651 -9.91534424 4.24942017 C-10.9259491 4.24582489 -11.93655396 4.24222961 -12.9777832 4.23852539 C-14.0514061 4.23867142 -15.12502899 4.23881744 -16.23118591 4.2389679 C-19.77523834 4.23827196 -23.31923802 4.23049444 -26.86328125 4.22265625 C-29.32236197 4.22079094 -31.78144307 4.21936757 -34.24052429 4.21836853 C-40.70957466 4.21455227 -47.17860255 4.20472956 -53.64764404 4.19366455 C-60.25011898 4.1834313 -66.85259755 4.1788668 -73.45507812 4.17382812 C-86.40756167 4.16310652 -99.36002964 4.14623326 -112.3125 4.125 C-112.3125 3.795 -112.3125 3.465 -112.3125 3.125 C-104.07088007 2.96403389 -95.82913776 2.8103646 -87.5872879 2.66164017 C-86.24182091 2.63729286 -84.8963568 2.61278575 -83.55089569 2.58811569 C-68.95847027 2.32061381 -54.36901867 2.07440143 -39.7734375 2.12890625 C-38.23913086 2.13420853 -38.23913086 2.13420853 -36.67382812 2.13961792 C-31.91799148 2.15977223 -27.16278866 2.19541924 -22.40722656 2.25 C-20.72200617 2.26185633 -19.03678486 2.27358322 -17.3515625 2.28515625 C-16.602164 2.29865616 -15.8527655 2.31215607 -15.08065796 2.32606506 C-9.64325316 2.35228744 -5.286058 -0.17918841 0 0 Z " fill="#4BB4DA" transform="translate(331.3125,312.875)"/>
<path d="M0 0 C1.52448631 2.9826906 2.93940067 5.818202 4 9 C2.35 8.67 0.7 8.34 -1 8 C-1.33 9.32 -1.66 10.64 -2 12 C-5.3125 12.3125 -5.3125 12.3125 -9 12 C-11.56110377 9.19104748 -11.97306037 7.47593344 -12.1875 3.6875 C-12.125625 2.800625 -12.06375 1.91375 -12 1 C-7.93631321 0.22596442 -4.13574827 -0.0984702 0 0 Z " fill="#08365A" transform="translate(376,391)"/>
<path d="M0 0 C1.8125 0.125 1.8125 0.125 4 1 C6.28905989 4.67884625 7 6.61551956 7 11 C4.47524538 12.26237731 2.68799534 12.09856404 -0.125 12.0625 C-1.03507812 12.05347656 -1.94515625 12.04445313 -2.8828125 12.03515625 C-3.58148438 12.02355469 -4.28015625 12.01195312 -5 12 C-5.2475 11.21625 -5.495 10.4325 -5.75 9.625 C-7.15389099 6.67682892 -8.00675737 6.0975223 -11 5 C-10.34 4.34 -9.68 3.68 -9 3 C-8.67 2.34 -8.34 1.68 -8 1 C-6.576875 1.495 -6.576875 1.495 -5.125 2 C-2.22937548 3.10159191 -2.22937548 3.10159191 0 3 C0 2.01 0 1.02 0 0 Z " fill="#224C6D" transform="translate(398,362)"/>
<path d="M0 0 C-5.82201941 3.82070024 -11.8350666 6.98649289 -18.1875 9.8125 C-18.85201172 10.11422119 -19.51652344 10.41594238 -20.20117188 10.72680664 C-24.49648742 12.59454377 -28.33688704 13.53429352 -33 14 C-32.34 13.67 -31.68 13.34 -31 13 C-31.33 12.01 -31.66 11.02 -32 10 C-31.125 7.9375 -31.125 7.9375 -30 6 C-29.67 5.34 -29.34 4.68 -29 4 C-27.68 4.66 -26.36 5.32 -25 6 C-25.33 6.99 -25.66 7.98 -26 9 C-25.01 8.67 -24.02 8.34 -23 8 C-23.33 6.68 -23.66 5.36 -24 4 C-19.25 2.875 -19.25 2.875 -17 4 C-16.67 3.01 -16.34 2.02 -16 1 C-15.01 1 -14.02 1 -13 1 C-13 1.66 -13 2.32 -13 3 C-10.29110713 2.47905906 -8.41281974 1.68843496 -5.9375 0.375 C-3 -1 -3 -1 0 0 Z " fill="#C6EEF8" transform="translate(224,285)"/>
<path d="M0 0 C0 3.4448059 -0.71212977 5.81421574 -2 9 C-2.99 9.66 -3.98 10.32 -5 11 C-6.21284876 14.05429073 -6.21284876 14.05429073 -7 17 C-7.99 16.67 -8.98 16.34 -10 16 C-10 15.01 -10 14.02 -10 13 C-10.639375 12.71125 -11.27875 12.4225 -11.9375 12.125 C-14 11 -14 11 -15 9 C-14.38125 8.855625 -13.7625 8.71125 -13.125 8.5625 C-10.96741678 8.06847775 -10.96741678 8.06847775 -9 7 C-9.66 6.67 -10.32 6.34 -11 6 C-8.39811798 0.79623595 -5.7297674 -0.52088795 0 0 Z " fill="#033358" transform="translate(196,359)"/>
<path d="M0 0 C3.63 0.66 7.26 1.32 11 2 C10.01 2.99 9.02 3.98 8 5 C6.80972016 7.59915538 6.80972016 7.59915538 6 10 C5.195625 9.979375 4.39125 9.95875 3.5625 9.9375 C1.06645115 9.70366379 1.06645115 9.70366379 0 11 C0.99 11.33 1.98 11.66 3 12 C-2.01250455 11.52261861 -5.03211541 10.08613246 -9 7 C-9.99 5.68 -10.98 4.36 -12 3 C-7.05 3.99 -7.05 3.99 -2 5 C-2.33 4.01 -2.66 3.02 -3 2 C-2.01 1.67 -1.02 1.34 0 1 C0 0.67 0 0.34 0 0 Z " fill="#1F4C6E" transform="translate(193,397)"/>
<path d="M0 0 C1.32 0 2.64 0 4 0 C4 0.66 4 1.32 4 2 C5.423125 1.9690625 5.423125 1.9690625 6.875 1.9375 C10 2 10 2 12 3 C12 4.32 12 5.64 12 7 C9.0173094 8.52448631 6.181798 9.93940067 3 11 C3 10.34 3 9.68 3 9 C2.01 9 1.02 9 0 9 C-0.45375 8.525625 -0.9075 8.05125 -1.375 7.5625 C-3.46366683 5.55416651 -5.1783448 5.38130476 -8 5 C-8 4.34 -8 3.68 -8 3 C-8.66 2.67 -9.32 2.34 -10 2 C-7 2 -4 2 -1 2 C-0.67 1.34 -0.34 0.68 0 0 Z " fill="#0C3D64" transform="translate(378,377)"/>
<path d="M0 0 C9.17286652 0.35010941 9.17286652 0.35010941 12.625 3.0625 C13.305625 4.0215625 13.305625 4.0215625 14 5 C13.236875 5.061875 12.47375 5.12375 11.6875 5.1875 C8.14395904 6.25880308 7.7347257 7.84595327 6 11 C2.35839192 12.21386936 1.66834531 11.6674695 -1.6875 10.0625 C-2.49574219 9.68222656 -3.30398438 9.30195313 -4.13671875 8.91015625 C-4.75160156 8.60980469 -5.36648438 8.30945313 -6 8 C-3.33788628 6.62420173 -0.93703384 5.62936439 2 5 C2 3.68 2 2.36 2 1 C1.34 0.67 0.68 0.34 0 0 Z " fill="#033154" transform="translate(388,379)"/>
<path d="M0 0 C0.66 0.33 1.32 0.66 2 1 C2 3.64 2 6.28 2 9 C1.01 9 0.02 9 -1 9 C-1.66 11.31 -2.32 13.62 -3 16 C-6.01031744 16.93423645 -6.86650268 17.04449911 -10 16 C-11.1875 13.4375 -11.1875 13.4375 -12 11 C-10.88625 10.54625 -9.7725 10.0925 -8.625 9.625 C-5.03800992 8.27534014 -5.03800992 8.27534014 -3 6 C-2.67 6.33 -2.34 6.66 -2 7 C-1.34 4.69 -0.68 2.38 0 0 Z " fill="#023256" transform="translate(403,388)"/>
<path d="M0 0 C4.55555556 0.55555556 4.55555556 0.55555556 6 2 C6.08809376 4.31231841 6.1033474 6.62744977 6.08984375 8.94140625 C6.08605209 9.65381973 6.08226044 10.36623322 6.07835388 11.10023499 C6.02352963 18.62835761 5.84878801 26.15358555 5.62768555 33.6784668 C5.56104264 35.98800549 5.50216182 38.29767167 5.44335938 40.60742188 C5.40150804 42.08074249 5.35920855 43.55405046 5.31640625 45.02734375 C5.27974854 46.34468506 5.24309082 47.66202637 5.20532227 49.01928711 C5 52 5 52 4 53 C2.33382885 53.04063832 0.66611905 53.042721 -1 53 C-1 52.34 -1 51.68 -1 51 C0.32 51 1.64 51 3 51 C3.03758423 49.29855835 3.03758423 49.29855835 3.07592773 47.56274414 C3.17072599 43.31899412 3.27076418 39.07538048 3.37231445 34.83178711 C3.41539143 33.00174164 3.45708323 31.17166298 3.49731445 29.34155273 C3.55568347 26.69765253 3.61917882 24.05391526 3.68359375 21.41015625 C3.70866249 20.20021751 3.70866249 20.20021751 3.73423767 18.96583557 C3.87160389 13.59294715 4.34504497 8.33520307 5 3 C2.69 2.67 0.38 2.34 -2 2 C-1.34 1.34 -0.68 0.68 0 0 Z " fill="#E0FDFE" transform="translate(332,118)"/>
<path d="M0 0 C2.475 0.495 2.475 0.495 5 1 C4.51104248 1.47147461 4.02208496 1.94294922 3.51831055 2.42871094 C1.25501044 6.26165461 1.62782185 9.77032706 1.70703125 14.140625 C1.71127609 15.02280701 1.71552094 15.90498901 1.71989441 16.81390381 C1.73666162 19.62624883 1.77431002 22.43787226 1.8125 25.25 C1.82754938 27.1588438 1.84123734 29.06769886 1.85351562 30.9765625 C1.88655873 35.65131889 1.93832745 40.32553718 2 45 C3.65 45.66 5.3 46.32 7 47 C7 47.33 7 47.66 7 48 C4.69 48 2.38 48 0 48 C0 32.16 0 16.32 0 0 Z " fill="#063352" transform="translate(284,359)"/>
<path d="M0 0 C5.83107254 6.21981071 6.22998209 12.87234635 6.16796875 20.99609375 C6 23 6 23 5 24 C2.66702567 24.04092937 0.33294775 24.04241723 -2 24 C-2.33 23.34 -2.66 22.68 -3 22 C-0.69 22 1.62 22 4 22 C3.67 17.71 3.34 13.42 3 9 C2.34 9 1.68 9 1 9 C0.67 6.03 0.34 3.06 0 0 Z " fill="#4E6580" transform="translate(218,364)"/>
<path d="M0 0 C0.33 0 0.66 0 1 0 C1.08690253 4.43737712 1.14035926 8.87453634 1.1875 13.3125 C1.21263672 14.57513672 1.23777344 15.83777344 1.26367188 17.13867188 C1.27333984 18.34716797 1.28300781 19.55566406 1.29296875 20.80078125 C1.3086792 21.91622314 1.32438965 23.03166504 1.34057617 24.1809082 C1 27 1 27 -0.39331055 28.88745117 C-2 30 -2 30 -4 30 C-3.82597656 30.84820312 -3.65195313 31.69640625 -3.47265625 32.5703125 C-2.97814151 36.15860955 -3.10678663 39.27389883 -3.4375 42.875 C-3.53933594 44.02742188 -3.64117187 45.17984375 -3.74609375 46.3671875 C-3.82988281 47.23601562 -3.91367188 48.10484375 -4 49 C-4.33 49 -4.66 49 -5 49 C-5.19421438 46.04196565 -5.38066186 43.08379837 -5.5625 40.125 C-5.61857422 39.28324219 -5.67464844 38.44148438 -5.73242188 37.57421875 C-5.78076172 36.76855469 -5.82910156 35.96289062 -5.87890625 35.1328125 C-5.9260376 34.38918457 -5.97316895 33.64555664 -6.02172852 32.87939453 C-6 31 -6 31 -5 29 C-4.34 29 -3.68 29 -3 29 C-1.00862881 25.66008621 -0.70412331 23.00136135 -0.5859375 19.140625 C-0.52792969 17.46806641 -0.52792969 17.46806641 -0.46875 15.76171875 C-0.4378125 14.60285156 -0.406875 13.44398438 -0.375 12.25 C-0.33632812 11.07566406 -0.29765625 9.90132812 -0.2578125 8.69140625 C-0.1636018 5.79442732 -0.07798398 2.89745374 0 0 Z " fill="#409CCA" transform="translate(223,132)"/>
<path d="M0 0 C0.99 0.33 1.98 0.66 3 1 C0.57604379 3.03754776 -1.86613176 5.05194025 -4.3125 7.0625 C-5.00279297 7.64322266 -5.69308594 8.22394531 -6.40429688 8.82226562 C-7.07138672 9.36689453 -7.73847656 9.91152344 -8.42578125 10.47265625 C-9.34484253 11.23461304 -9.34484253 11.23461304 -10.2824707 12.01196289 C-10.84925537 12.33801514 -11.41604004 12.66406738 -12 13 C-12.99 12.67 -13.98 12.34 -15 12 C-15.33 11.01 -15.66 10.02 -16 9 C-14.9375 7.5 -14.9375 7.5 -13 6 C-9.3125 5.8125 -9.3125 5.8125 -6 6 C-6 5.34 -6 4.68 -6 4 C-5.01 4 -4.02 4 -3 4 C-3 3.34 -3 2.68 -3 2 C-2.01 2 -1.02 2 0 2 C0 1.34 0 0.68 0 0 Z " fill="#16446B" transform="translate(243,238)"/>
<path d="M0 0 C2.05078125 0.03255208 4.1015625 0.06510417 6.15234375 0.09765625 C5.16234375 2.07765625 4.17234375 4.05765625 3.15234375 6.09765625 C3.81234375 6.09765625 4.47234375 6.09765625 5.15234375 6.09765625 C5.15234375 6.75765625 5.15234375 7.41765625 5.15234375 8.09765625 C2.18234375 8.09765625 -0.78765625 8.09765625 -3.84765625 8.09765625 C-2.83612374 0.14990083 -2.83612374 0.14990083 0 0 Z " fill="#023156" transform="translate(337.84765625,358.90234375)"/>
<path d="M0 0 C1.07894531 0.04640625 2.15789062 0.0928125 3.26953125 0.140625 C4.35621094 0.17671875 5.44289062 0.2128125 6.5625 0.25 C7.39394531 0.29640625 8.22539062 0.3428125 9.08203125 0.390625 C10.08203125 3.390625 10.08203125 3.390625 8.76953125 6.515625 C7.08203125 9.390625 7.08203125 9.390625 5.08203125 10.390625 C4.15137992 7.78480129 3.93285718 6.74864276 5.01953125 4.140625 C5.37015625 3.563125 5.72078125 2.985625 6.08203125 2.390625 C1.74825625 2.01915857 -0.28814238 3.13424645 -3.91796875 5.390625 C-4.57796875 5.060625 -5.23796875 4.730625 -5.91796875 4.390625 C-4.20732299 1.34147397 -3.55091093 0.47535622 0 0 Z " fill="#3F657F" transform="translate(212.91796875,392.609375)"/>
<path d="M0 0 C0.99 0 1.98 0 3 0 C4.75 2.3125 4.75 2.3125 6 5 C5.67 5.99 5.34 6.98 5 8 C4.34 8 3.68 8 3 8 C3 6.35 3 4.7 3 3 C-0.41703059 5.2780204 -0.79651189 6.38372165 -2.1875 10.125 C-2.53167969 11.03507813 -2.87585938 11.94515625 -3.23046875 12.8828125 C-3.48441406 13.58148438 -3.73835938 14.28015625 -4 15 C-4.66 15 -5.32 15 -6 15 C-6.33 15.99 -6.66 16.98 -7 18 C-7.33 17.34 -7.66 16.68 -8 16 C-7.37915039 14.30419922 -7.37915039 14.30419922 -6.34765625 12.3046875 C-5.98349609 11.58925781 -5.61933594 10.87382812 -5.24414062 10.13671875 C-4.85419922 9.39035156 -4.46425781 8.64398438 -4.0625 7.875 C-3.67642578 7.12089844 -3.29035156 6.36679688 -2.89257812 5.58984375 C-1.93547868 3.72290903 -0.96863894 1.86097372 0 0 Z " fill="#52AFD3" transform="translate(320,157)"/>
<path d="M0 0 C1.12268565 2.75568295 1.03909704 3.88531535 0.0625 6.75 C-2 9 -2 9 -3.984375 9.31640625 C-5.99235195 9.31284601 -7.99873152 9.1640384 -10 9 C-9.67 8.01 -9.34 7.02 -9 6 C-8.34 6 -7.68 6 -7 6 C-6.67 5.34 -6.34 4.68 -6 4 C-6 4.66 -6 5.32 -6 6 C-5.34 6 -4.68 6 -4 6 C-4 5.34 -4 4.68 -4 4 C-6.64 3.67 -9.28 3.34 -12 3 C-12 2.67 -12 2.34 -12 2 C-11.21753906 1.93941406 -10.43507813 1.87882812 -9.62890625 1.81640625 C-8.61699219 1.73261719 -7.60507812 1.64882813 -6.5625 1.5625 C-5.55316406 1.48128906 -4.54382813 1.40007812 -3.50390625 1.31640625 C-1.06359221 1.26788532 -1.06359221 1.26788532 0 0 Z " fill="#214E71" transform="translate(347,376)"/>
<path d="M0 0 C1.32 0 2.64 0 4 0 C3.649375 0.7425 3.29875 1.485 2.9375 2.25 C1.95490707 5.1322726 1.9673198 6.21176345 3 9 C2.01 9 1.02 9 0 9 C-0.45375 8.525625 -0.9075 8.05125 -1.375 7.5625 C-3.46366683 5.55416651 -5.1783448 5.38130476 -8 5 C-8 4.34 -8 3.68 -8 3 C-8.66 2.67 -9.32 2.34 -10 2 C-7 2 -4 2 -1 2 C-0.67 1.34 -0.34 0.68 0 0 Z " fill="#033155" transform="translate(378,377)"/>
<path d="M0 0 C2.475 0.99 2.475 0.99 5 2 C4.67 2.99 4.34 3.98 4 5 C5.65 5.33 7.3 5.66 9 6 C6.14521674 7.90318884 4.58058692 8.4619099 1.3125 9.125 C0.50425781 9.29257812 -0.30398437 9.46015625 -1.13671875 9.6328125 C-1.75160156 9.75398438 -2.36648437 9.87515625 -3 10 C-2.34 9.67 -1.68 9.34 -1 9 C-1.33 8.01 -1.66 7.02 -2 6 C-1.0625 3.9375 -1.0625 3.9375 0 2 C0 1.34 0 0.68 0 0 Z " fill="#88D4F0" transform="translate(194,289)"/>
<path d="M0 0 C-0.84304687 0.47050781 -1.68609375 0.94101562 -2.5546875 1.42578125 C-3.65039062 2.04839844 -4.74609375 2.67101562 -5.875 3.3125 C-6.96554688 3.92738281 -8.05609375 4.54226563 -9.1796875 5.17578125 C-12.19404845 6.86057646 -12.19404845 6.86057646 -14 10 C-15.32 9.67 -16.64 9.34 -18 9 C-18.33 7.68 -18.66 6.36 -19 5 C-16.21142 3.96995707 -13.41969712 2.95069003 -10.625 1.9375 C-9.8309375 1.64294922 -9.036875 1.34839844 -8.21875 1.04492188 C-7.45820313 0.77099609 -6.69765625 0.49707031 -5.9140625 0.21484375 C-5.2123291 -0.04176025 -4.5105957 -0.29836426 -3.78759766 -0.56274414 C-2 -1 -2 -1 0 0 Z " fill="#AFDDF1" transform="translate(202,268)"/>
<path d="M0 0 C0.33 0 0.66 0 1 0 C1.33 1.65 1.66 3.3 2 5 C8.27 5.66 14.54 6.32 21 7 C21.33 7.99 21.66 8.98 22 10 C21.01 10.99 20.02 11.98 19 13 C19 11.68 19 10.36 19 9 C18.03578125 9.02320313 17.0715625 9.04640625 16.078125 9.0703125 C14.81484375 9.08835938 13.5515625 9.10640625 12.25 9.125 C10.99703125 9.14820313 9.7440625 9.17140625 8.453125 9.1953125 C4.90653929 8.99471376 2.53923857 8.53923857 0 6 C-0.04080783 4.00041636 -0.04254356 1.99954746 0 0 Z " fill="#54AFD4" transform="translate(287,140)"/>
<path d="M0 0 C0.33 1.98 0.66 3.96 1 6 C-1.31 6.33 -3.62 6.66 -6 7 C-6 6.34 -6 5.68 -6 5 C-6.66 4.34 -7.32 3.68 -8 3 C-8.33 2.01 -8.66 1.02 -9 0 C-5.52176885 -1.15941038 -3.54104422 -0.70820884 0 0 Z " fill="#0E3D62" transform="translate(393,400)"/>
<path d="M0 0 C0.33 0.66 0.66 1.32 1 2 C0.360625 2.928125 -0.27875 3.85625 -0.9375 4.8125 C-3.08622093 7.84219943 -3.08622093 7.84219943 -4 11 C-4.66 11.66 -5.32 12.32 -6 13 C-6.33 13.99 -6.66 14.98 -7 16 C-7.99 16.33 -8.98 16.66 -10 17 C-11.43948118 18.62882397 -11.43948118 18.62882397 -12.6875 20.5625 C-13.12449219 21.20316406 -13.56148438 21.84382813 -14.01171875 22.50390625 C-14.33785156 22.99761719 -14.66398437 23.49132812 -15 24 C-15.66 23.67 -16.32 23.34 -17 23 C-14.72944919 19.91645852 -12.45850979 16.83320344 -10.1875 13.75 C-9.54490234 12.87730469 -8.90230469 12.00460938 -8.24023438 11.10546875 C-7.61826172 10.26113281 -6.99628906 9.41679687 -6.35546875 8.546875 C-5.78465576 7.77182617 -5.21384277 6.99677734 -4.62573242 6.19824219 C-3.09271321 4.12536263 -1.54952488 2.06056024 0 0 Z " fill="#57B4D4" transform="translate(283,224)"/>
<path d="M0 0 C0.66 0 1.32 0 2 0 C2.33 7.26 2.66 14.52 3 22 C1.02 22.99 1.02 22.99 -1 24 C-0.67 16.08 -0.34 8.16 0 0 Z " fill="#022A4E" transform="translate(264,340)"/>
<path d="M0 0 C0.33 0.66 0.66 1.32 1 2 C0.34 2 -0.32 2 -1 2 C-1.0825 2.7425 -1.165 3.485 -1.25 4.25 C-2.14809799 7.54302595 -3.38416074 8.85976788 -6 11 C-6.66 11 -7.32 11 -8 11 C-8 11.66 -8 12.32 -8 13 C-9.32 13.33 -10.64 13.66 -12 14 C-9.01915194 7.91410189 -5.2724523 4.21028351 0 0 Z " fill="#65C1DF" transform="translate(150,97)"/>
<path d="M0 0 C0.66 0 1.32 0 2 0 C1.26951699 4.68803656 -0.36636885 8.90885555 -2.0625 13.3125 C-2.34416016 14.05306641 -2.62582031 14.79363281 -2.91601562 15.55664062 C-3.60718575 17.37242655 -4.30311689 19.18639899 -5 21 C-5.33 21 -5.66 21 -6 21 C-5.48594831 16.03083364 -4.76615118 11.70973649 -3 7 C-3.66 6.67 -4.32 6.34 -5 6 C-4.360625 5.566875 -3.72125 5.13375 -3.0625 4.6875 C-0.73253997 3.08760823 -0.73253997 3.08760823 0 0 Z " fill="#345877" transform="translate(174,358)"/>
<path d="M0 0 C0 3.57575896 -1.08840607 5.05295935 -3 8 C-4.98 6.68 -6.96 5.36 -9 4 C-9.99 4.495 -9.99 4.495 -11 5 C-10.1875 3.0625 -10.1875 3.0625 -9 1 C-5.8035914 -0.06546953 -3.34252724 -0.07427838 0 0 Z " fill="#02325C" transform="translate(382,359)"/>
<path d="M0 0 C0.33 0 0.66 0 1 0 C1 3.96 1 7.92 1 12 C-0.65 12.33 -2.3 12.66 -4 13 C-5 12 -5 12 -5.09765625 9.49609375 C-5.08605469 8.48675781 -5.07445312 7.47742188 -5.0625 6.4375 C-5.05347656 5.42558594 -5.04445312 4.41367188 -5.03515625 3.37109375 C-5.02355469 2.58863281 -5.01195312 1.80617187 -5 1 C-4.67 1 -4.34 1 -4 1 C-3.34 2.98 -2.68 4.96 -2 7 C-1.67 7 -1.34 7 -1 7 C-0.67 4.69 -0.34 2.38 0 0 Z " fill="#3C9ACA" transform="translate(226,235)"/>
<path d="M0 0 C-1.51890531 4.55671592 -3.95402262 8.31723292 -7 12 C-7.33 12 -7.66 12 -8 12 C-8.33 9.36 -8.66 6.72 -9 4 C-8.01 3.67 -7.02 3.34 -6 3 C-5.505 2.484375 -5.01 1.96875 -4.5 1.4375 C-3 0 -3 0 0 0 Z " fill="#124068" transform="translate(286,188)"/>
<path d="M0 0 C7.31041153 1.81464116 12.32771705 5.10547688 18 10 C16.02 10.99 16.02 10.99 14 12 C12.62437146 10.71034824 11.29233607 9.37310707 10 8 C10 7.34 10 6.68 10 6 C8.68 6 7.36 6 6 6 C6 5.34 6 4.68 6 4 C5.34 4 4.68 4 4 4 C4 3.34 4 2.68 4 2 C2.68 1.67 1.36 1.34 0 1 C0 0.67 0 0.34 0 0 Z " fill="#61BADC" transform="translate(335,90)"/>
<path d="M0 0 C0 2.83967231 -0.40267181 5.23735711 -1 8 C-2.32 7.67 -3.64 7.34 -5 7 C-5 6.34 -5 5.68 -5 5 C-5.99 4.67 -6.98 4.34 -8 4 C-8 3.01 -8 2.02 -8 1 C-5.29120665 -0.35439668 -2.99066732 -0.06501451 0 0 Z " fill="#02325B" transform="translate(196,359)"/>
<path d="M0 0 C5.28 0 10.56 0 16 0 C15.67 0.66 15.34 1.32 15 2 C11.37 2 7.74 2 4 2 C4.33 5.63 4.66 9.26 5 13 C1.55412412 9.55412412 1.18707837 4.64039725 0 0 Z " fill="#4C748E" transform="translate(116,340)"/>
<path d="M0 0 C0.33 0.99 0.66 1.98 1 3 C0.04060332 4.69036558 -0.96642853 6.35394174 -2 8 C-2.67863055 9.9959722 -3.34641919 11.99568551 -4 14 C-4.99 15.485 -4.99 15.485 -6 17 C-6.66 17 -7.32 17 -8 17 C-8 17.66 -8 18.32 -8 19 C-8.66 19 -9.32 19 -10 19 C-8.79319466 14.50190735 -6.99334673 11.40074019 -4.2421875 7.74609375 C-2.5109392 5.31254661 -1.25295786 2.70375118 0 0 Z " fill="#53B3D5" transform="translate(298,199)"/>
<path d="M0 0 C0.33 0.66 0.66 1.32 1 2 C0.34 2 -0.32 2 -1 2 C-2.62514468 3.45833358 -2.62514468 3.45833358 -4 5 C-6.5 3.625 -6.5 3.625 -9 2 C-9 1.34 -9 0.68 -9 0 C-9.66 -0.33 -10.32 -0.66 -11 -1 C-6.72306069 -2.25792333 -4.07539885 -1.75983132 0 0 Z " fill="#174569" transform="translate(400,361)"/>
<path d="M0 0 C0.99 0.33 1.98 0.66 3 1 C4 5.75 4 5.75 4 8 C1.36 8 -1.28 8 -4 8 C-4.33 7.01 -4.66 6.02 -5 5 C-4.34 5 -3.68 5 -3 5 C-2.67 4.34 -2.34 3.68 -2 3 C-2 3.66 -2 4.32 -2 5 C-1.34 5 -0.68 5 0 5 C0 3.35 0 1.7 0 0 Z " fill="#123E61" transform="translate(102,345)"/>
<path d="M0 0 C-0.33 0.99 -0.66 1.98 -1 3 C-1.66 3 -2.32 3 -3 3 C-3.268125 3.7425 -3.53625 4.485 -3.8125 5.25 C-4.94229421 7.86636554 -6.20893202 9.80187111 -8 12 C-8 10.35 -8 8.7 -8 7 C-8.66 6.67 -9.32 6.34 -10 6 C-9.875 4.1875 -9.875 4.1875 -9 2 C-3.81203008 -1.27067669 -3.81203008 -1.27067669 0 0 Z " fill="#013055" transform="translate(402,384)"/>
<path d="M0 0 C0.33 0 0.66 0 1 0 C1.33 7.59 1.66 15.18 2 23 C-1.96 23 -5.92 23 -10 23 C-10 22.67 -10 22.34 -10 22 C-7.03 21.34 -4.06 20.68 -1 20 C-0.67 13.4 -0.34 6.8 0 0 Z " fill="#1A4363" transform="translate(274,385)"/>
<path d="M0 0 C0.33 0.66 0.66 1.32 1 2 C-0.328125 4.4609375 -0.328125 4.4609375 -2.25 7.375 C-2.87390625 8.33148438 -3.4978125 9.28796875 -4.140625 10.2734375 C-5.70444641 12.56660419 -7.31010755 14.79896724 -9 17 C-9.99 16.67 -10.98 16.34 -12 16 C-8.04 10.72 -4.08 5.44 0 0 Z " fill="#EAF3F8" transform="translate(276,203)"/>
<path d="M0 0 C0.74362793 0.01047363 1.48725586 0.02094727 2.25341797 0.03173828 C3.46191406 0.04140625 3.46191406 0.04140625 4.69482422 0.05126953 C5.95746094 0.07640625 5.95746094 0.07640625 7.24560547 0.10205078 C8.51984375 0.11558594 8.51984375 0.11558594 9.81982422 0.12939453 C11.9202043 0.15299431 14.02043991 0.18886595 16.12060547 0.22705078 C15.79060547 0.88705078 15.46060547 1.54705078 15.12060547 2.22705078 C14.55212891 2.20384766 13.98365234 2.18064453 13.39794922 2.15673828 C8.19978175 2.03524522 4.01391536 2.42950837 -0.87939453 4.22705078 C-1.53939453 4.88705078 -2.19939453 5.54705078 -2.87939453 6.22705078 C-3.50439453 4.35205078 -3.50439453 4.35205078 -3.87939453 2.22705078 C-1.87939453 0.22705078 -1.87939453 0.22705078 0 0 Z " fill="#597B95" transform="translate(331.87939453125,385.77294921875)"/>
<path d="M0 0 C1.98 0 3.96 0 6 0 C5.01 1.98 4.02 3.96 3 6 C2.34 6 1.68 6 1 6 C0.34 7.32 -0.32 8.64 -1 10 C-2.46726798 6.18510326 -1.43336419 3.70988378 0 0 Z " fill="#5CBDE0" transform="translate(354,294)"/>
<path d="M0 0 C1.98 0 3.96 0 6 0 C6 0.33 6 0.66 6 1 C4.35 1 2.7 1 1 1 C1.01160156 1.78246094 1.02320313 2.56492188 1.03515625 3.37109375 C1.04417969 4.38300781 1.05320312 5.39492187 1.0625 6.4375 C1.07410156 7.44683594 1.08570313 8.45617187 1.09765625 9.49609375 C1 12 1 12 0 13 C-2.67058851 13.14115161 -5.32432238 13.04247107 -8 13 C-5.35261084 11.5393715 -4.10551666 11 -1 11 C-1.01160156 10.37351563 -1.02320313 9.74703125 -1.03515625 9.1015625 C-1.04417969 8.28429687 -1.05320312 7.46703125 -1.0625 6.625 C-1.07410156 5.81289062 -1.08570313 5.00078125 -1.09765625 4.1640625 C-1 2 -1 2 0 0 Z " fill="#3E98C7" transform="translate(272,172)"/>
<path d="M0 0 C1.33333333 0.66666667 2.66666667 1.33333333 4 2 C4 2.66 4 3.32 4 4 C3.34 4 2.68 4 2 4 C2.34786708 5.97536745 2.34786708 5.97536745 3 8 C3.66 8.33 4.32 8.66 5 9 C4.67 9.99 4.34 10.98 4 12 C3.01 12 2.02 12 1 12 C0.731875 10.88625 0.46375 9.7725 0.1875 8.625 C-0.65809019 4.78159049 -0.65809019 4.78159049 -4 3 C-2.68 2.67 -1.36 2.34 0 2 C0 1.34 0 0.68 0 0 Z " fill="#2D587A" transform="translate(259,395)"/>
<path d="M0 0 C4.62 0 9.24 0 14 0 C13.34 3.3 12.68 6.6 12 10 C11.67 10 11.34 10 11 10 C10.67 7.36 10.34 4.72 10 2 C6.7 1.67 3.4 1.34 0 1 C0 0.67 0 0.34 0 0 Z " fill="#466D89" transform="translate(168,340)"/>
<path d="M0 0 C1.65 0.33 3.3 0.66 5 1 C5 2.32 5 3.64 5 5 C4.01 5.495 4.01 5.495 3 6 C2.52998967 9.27555608 2.52998967 9.27555608 2.375 13.0625 C2.30023438 14.35285156 2.22546875 15.64320313 2.1484375 16.97265625 C2.09945312 17.97167969 2.05046875 18.97070312 2 20 C1.67 20 1.34 20 1 20 C0.93941406 18.95199219 0.87882813 17.90398437 0.81640625 16.82421875 C0.73198262 15.44529952 0.64733553 14.06639395 0.5625 12.6875 C0.52318359 11.99720703 0.48386719 11.30691406 0.44335938 10.59570312 C0.25072585 7.52838465 -0.02322717 4.93031848 -1 2 C-0.67 1.34 -0.34 0.68 0 0 Z " fill="#054A7A" transform="translate(162,157)"/>
<path d="M0 0 C1.62490954 -0.02698189 3.24994633 -0.04638757 4.875 -0.0625 C5.77992188 -0.07410156 6.68484375 -0.08570313 7.6171875 -0.09765625 C10 0 10 0 12 1 C12.75 3.375 12.75 3.375 13 6 C12.01 7.485 12.01 7.485 11 9 C10 8 10 8 9.9375 4.9375 C9.9684375 3.4834375 9.9684375 3.4834375 10 2 C6.7 2 3.4 2 0 2 C0 1.34 0 0.68 0 0 Z " fill="#577291" transform="translate(285,358)"/>
<path d="M0 0 C0.66 0.99 1.32 1.98 2 3 C0.68 4.32 -0.64 5.64 -2 7 C-0.68 7.66 0.64 8.32 2 9 C1.67 9.66 1.34 10.32 1 11 C-1.49349318 9.75325341 -2.46640071 8.30039894 -4 6 C-4 5.34 -4 4.68 -4 4 C-6.64 4 -9.28 4 -12 4 C-12 3.67 -12 3.34 -12 3 C-11.38511719 2.95101563 -10.77023437 2.90203125 -10.13671875 2.8515625 C-9.32847656 2.77679688 -8.52023437 2.70203125 -7.6875 2.625 C-6.88699219 2.55539062 -6.08648437 2.48578125 -5.26171875 2.4140625 C-2.72775559 2.10435574 -2.72775559 2.10435574 0 0 Z " fill="#436E8D" transform="translate(344,396)"/>
<path d="M0 0 C0.66 0 1.32 0 2 0 C2.33 1.65 2.66 3.3 3 5 C4.98 5 6.96 5 9 5 C6.06279492 6.52299523 3.0831351 7.80100302 0 9 C-0.66 8.34 -1.32 7.68 -2 7 C-2 3 -2 3 0 1 C0 0.67 0 0.34 0 0 Z " fill="#2D597A" transform="translate(299,365)"/>
<path d="M0 0 C0.66 0 1.32 0 2 0 C2.33 0.99 2.66 1.98 3 3 C-3.75 7 -3.75 7 -6 7 C-6 6.01 -6 5.02 -6 4 C-5.34 4 -4.68 4 -4 4 C-4.33 3.01 -4.66 2.02 -5 1 C-3.35 1 -1.7 1 0 1 C0 0.67 0 0.34 0 0 Z " fill="#20496C" transform="translate(215,401)"/>
<path d="M0 0 C3.70129644 0.38961015 5.61879622 1.11749016 8 4 C7.2575 4.144375 6.515 4.28875 5.75 4.4375 C3.47972261 4.90187492 1.24240521 5.41863569 -1 6 C-1.042721 4.33388095 -1.04063832 2.66617115 -1 1 C-0.67 0.67 -0.34 0.34 0 0 Z " fill="#275074" transform="translate(394,380)"/>
<path d="M0 0 C0.66 0.33 1.32 0.66 2 1 C0.515 2.485 0.515 2.485 -1 4 C-0.01 4.33 0.98 4.66 2 5 C-0.85306797 7.32472205 -3.54074837 8.7508258 -7 10 C-5.125 5.25 -5.125 5.25 -4 3 C-3.34 3 -2.68 3 -2 3 C-2 2.34 -2 1.68 -2 1 C-1.34 0.67 -0.68 0.34 0 0 Z " fill="#466C88" transform="translate(186,361)"/>
<path d="M0 0 C0.33 1.65 0.66 3.3 1 5 C-0.98 5.33 -2.96 5.66 -5 6 C-5.66 4.02 -6.32 2.04 -7 0 C-3.86650268 -1.04449911 -3.01031744 -0.93423645 0 0 Z " fill="#B3E3F5" transform="translate(207,289)"/>
<path d="M0 0 C4.12989477 4.26311718 4.61271765 7.28758534 5 13 C4.01 13.495 4.01 13.495 3 14 C3 12.35 3 10.7 3 9 C2.34 9 1.68 9 1 9 C0.67 6.03 0.34 3.06 0 0 Z " fill="#395F7C" transform="translate(218,364)"/>
<path d="M0 0 C2.97 0 5.94 0 9 0 C9.33 1.65 9.66 3.3 10 5 C9.01 5.495 9.01 5.495 8 6 C6.0546875 5.22265625 6.0546875 5.22265625 3.875 4.0625 C3.15054687 3.68222656 2.42609375 3.30195313 1.6796875 2.91015625 C1.12539062 2.60980469 0.57109375 2.30945313 0 2 C0 1.34 0 0.68 0 0 Z " fill="#2C5373" transform="translate(253,367)"/>
<path d="M0 0 C1.98 0 3.96 0 6 0 C5.40606618 1.29640378 4.79942011 2.58698839 4.1875 3.875 C3.85105469 4.59429687 3.51460938 5.31359375 3.16796875 6.0546875 C2 8 2 8 -1 10 C-1 9.01 -1 8.02 -1 7 C-0.34 7 0.32 7 1 7 C0.67 4.69 0.34 2.38 0 0 Z " fill="#103E67" transform="translate(290,172)"/>
<path d="M0 0 C4.19360449 0.67097672 7.40334352 2.8558394 11 5 C9.3125 6.1875 9.3125 6.1875 7 7 C4.25 5.8125 4.25 5.8125 2 4 C2 3.01 2 2.02 2 1 C1.34 0.67 0.68 0.34 0 0 Z M1 5 C1.99 5.495 1.99 5.495 3 6 C2.01 6.495 2.01 6.495 1 7 C1 6.34 1 5.68 1 5 Z " fill="#365E7D" transform="translate(207,358)"/>
<path d="M0 0 C0 0.99 0 1.98 0 3 C-3.15733301 6.15733301 -7.67679342 8.02052351 -12 9 C-13.32 8.67 -14.64 8.34 -16 8 C-10.72 5.36 -5.44 2.72 0 0 Z " fill="#52B2D6" transform="translate(221,286)"/>
<path d="M0 0 C0.99 0 1.98 0 3 0 C2.42531075 3.87915244 0.62115553 6.14756605 -2 9 C-2.99 9.33 -3.98 9.66 -5 10 C-5.33 9.34 -5.66 8.68 -6 8 C-4.68 7.67 -3.36 7.34 -2 7 C-1.855625 6.21625 -1.71125 5.4325 -1.5625 4.625 C-1 2 -1 2 0 0 Z " fill="#315A76" transform="translate(402,397)"/>
<path d="M0 0 C1.98 0 3.96 0 6 0 C7.52448631 2.9826906 8.93940067 5.818202 10 9 C7.03 8.505 7.03 8.505 4 8 C4.33 5.69 4.66 3.38 5 1 C3.35 1 1.7 1 0 1 C0 0.67 0 0.34 0 0 Z " fill="#4A738F" transform="translate(370,391)"/>
<path d="M0 0 C0.99 0.33 1.98 0.66 3 1 C3 1.66 3 2.32 3 3 C5.31 3.33 7.62 3.66 10 4 C10.33 4.99 10.66 5.98 11 7 C11.99 7.33 12.98 7.66 14 8 C9.43545749 7.45660208 6.0271824 6.20536179 2 4 C2 3.34 2 2.68 2 2 C1.34 2 0.68 2 0 2 C0 1.34 0 0.68 0 0 Z " fill="#557791" transform="translate(367,379)"/>
<path d="M0 0 C2.8125 -0.25 2.8125 -0.25 6 0 C7.9375 1.8125 7.9375 1.8125 9 4 C8.67 4.99 8.34 5.98 8 7 C5 3.25 5 3.25 5 1 C4.01 1.33 3.02 1.66 2 2 C0.28432339 5.50294871 0.28432339 5.50294871 -1 9 C-2.0326802 6.21176345 -2.04509293 5.1322726 -1.0625 2.25 C-0.711875 1.5075 -0.36125 0.765 0 0 Z " fill="#DBFAFE" transform="translate(318,156)"/>
<path d="M0 0 C4.55555556 0.55555556 4.55555556 0.55555556 6 2 C6.07319621 4.69654854 6.09242537 7.36691458 6.0625 10.0625 C6.05798828 10.82111328 6.05347656 11.57972656 6.04882812 12.36132812 C6.0370068 14.24091871 6.01907078 16.12046899 6 18 C5.67 18 5.34 18 5 18 C5 13.05 5 8.1 5 3 C2.69 2.67 0.38 2.34 -2 2 C-1.34 1.34 -0.68 0.68 0 0 Z " fill="#C1EFFB" transform="translate(332,118)"/>
<path d="M0 0 C0.99 0.66 1.98 1.32 3 2 C2.67 2.66 2.34 3.32 2 4 C1.34 4 0.68 4 0 4 C0 4.66 0 5.32 0 6 C-1.98 6 -3.96 6 -6 6 C-4.95125002 3.37812506 -4.35068687 2.20628639 -1.875 0.75 C-1.25625 0.5025 -0.6375 0.255 0 0 Z " fill="#04325A" transform="translate(191,396)"/>
<path d="M0 0 C0.66 0.33 1.32 0.66 2 1 C1.67 2.65 1.34 4.3 1 6 C-0.98 6.66 -2.96 7.32 -5 8 C-5 5 -5 5 -2.5 2.3125 C-1.675 1.549375 -0.85 0.78625 0 0 Z " fill="#3A607D" transform="translate(325,360)"/>
<path d="M0 0 C0.66 0 1.32 0 2 0 C2.33 0.99 2.66 1.98 3 3 C-0.35327639 5.23551759 -0.90743657 5.17283528 -4.6875 4.625 C-5.49574219 4.51414062 -6.30398438 4.40328125 -7.13671875 4.2890625 C-8.05904297 4.14597656 -8.05904297 4.14597656 -9 4 C-9 3.67 -9 3.34 -9 3 C-4.545 2.505 -4.545 2.505 0 2 C0 1.34 0 0.68 0 0 Z " fill="#1C4162" transform="translate(394,404)"/>
<path d="M0 0 C0.66 0 1.32 0 2 0 C2.33 0.99 2.66 1.98 3 3 C4.32 2.67 5.64 2.34 7 2 C6.75 3.875 6.75 3.875 6 6 C3.41847698 7.72101535 2.15081975 8 -1 8 C-1 7.34 -1 6.68 -1 6 C-0.34 6 0.32 6 1 6 C0.67 4.02 0.34 2.04 0 0 Z " fill="#1F4D70" transform="translate(392,391)"/>
<path d="M0 0 C2.31 0.33 4.62 0.66 7 1 C7.33 2.32 7.66 3.64 8 5 C8.66 5 9.32 5 10 5 C10.33 5.99 10.66 6.98 11 8 C10.34 8 9.68 8 9 8 C9 7.34 9 6.68 9 6 C8.01 6 7.02 6 6 6 C6 5.34 6 4.68 6 4 C5.38125 3.71125 4.7625 3.4225 4.125 3.125 C2 2 2 2 0 0 Z " fill="#69BEDE" transform="translate(147,304)"/>
<path d="M0 0 C3.3 0.66 6.6 1.32 10 2 C9.67 2.99 9.34 3.98 9 5 C8.278125 4.79375 7.55625 4.5875 6.8125 4.375 C3.55358415 3.94047789 1.91695496 4.58319331 -1 6 C-1.33 5.34 -1.66 4.68 -2 4 C-1.34 3.67 -0.68 3.34 0 3 C0 2.01 0 1.02 0 0 Z " fill="#50B0D8" transform="translate(328,115)"/>
<path d="M0 0 C0.99 0 1.98 0 3 0 C1.73058503 3.91402949 0.48832306 5.79072873 -3 8 C-2.67 6.68 -2.34 5.36 -2 4 C-2.66 4 -3.32 4 -4 4 C-3.67 3.01 -3.34 2.02 -3 1 C-2.34 1.33 -1.68 1.66 -1 2 C-0.67 1.34 -0.34 0.68 0 0 Z " fill="#134066" transform="translate(264,214)"/>
<path d="M0 0 C2.375 -0.125 2.375 -0.125 5 0 C7 2 7 2 7.1953125 4.6015625 C7.17210937 5.59929687 7.14890625 6.59703125 7.125 7.625 C7.10695312 8.62789062 7.08890625 9.63078125 7.0703125 10.6640625 C7.03550781 11.82035156 7.03550781 11.82035156 7 13 C6.67 13 6.34 13 6 13 C5.67 9.7 5.34 6.4 5 3 C2.525 2.01 2.525 2.01 0 1 C0 0.67 0 0.34 0 0 Z " fill="#46AAD7" transform="translate(187,171)"/>
<path d="M0 0 C0.99 0.33 1.98 0.66 3 1 C1.92598892 3.91517292 1.22189824 5.77810176 -1 8 C-1 6.68 -1 5.36 -1 4 C-1.99 3.67 -2.98 3.34 -4 3 C-2 1 -2 1 0 0 Z " fill="#4BB1D7" transform="translate(300,158)"/>
<path d="M0 0 C0.66 0 1.32 0 2 0 C2.99 2.97 3.98 5.94 5 9 C4.34 9.66 3.68 10.32 3 11 C0 4.5 0 4.5 0 0 Z " fill="#56B4D9" transform="translate(361,114)"/>
<path d="M0 0 C0.66 0 1.32 0 2 0 C0.68938409 4.23429756 -0.94356259 8.07407404 -3 12 C-3.86626039 9.57447091 -4.17413108 8.42863035 -3.1875 6 C-2.795625 5.34 -2.40375 4.68 -2 4 C-1.62875 3.2575 -1.2575 2.515 -0.875 1.75 C-0.58625 1.1725 -0.2975 0.595 0 0 Z " fill="#D9F8FD" transform="translate(314,165)"/>
<path d="M0 0 C2.31 0.66 4.62 1.32 7 2 C5.8125 3.5625 5.8125 3.5625 4 5 C1.3125 4.6875 1.3125 4.6875 -1 4 C-0.67 2.68 -0.34 1.36 0 0 Z " fill="#043359" transform="translate(138,392)"/>
<path d="M0 0 C-0.99 0.495 -0.99 0.495 -2 1 C-2.33 1.99 -2.66 2.98 -3 4 C-4.65 4.33 -6.3 4.66 -8 5 C-7.625 3.0625 -7.625 3.0625 -7 1 C-4.53721199 -0.231394 -2.7204945 -0.07159196 0 0 Z " fill="#254C6A" transform="translate(329,381)"/>
<path d="M0 0 C2.31 0.33 4.62 0.66 7 1 C6.67 2.32 6.34 3.64 6 5 C4.35 4.67 2.7 4.34 1 4 C0.67 2.68 0.34 1.36 0 0 Z " fill="#023358" transform="translate(383,379)"/>
<path d="M0 0 C0.66 0.33 1.32 0.66 2 1 C0.56967163 2.17544805 -0.86953242 3.34010262 -2.3125 4.5 C-3.11300781 5.1496875 -3.91351563 5.799375 -4.73828125 6.46875 C-7 8 -7 8 -10 8 C-10 7.34 -10 6.68 -10 6 C-7.8828125 4.45703125 -7.8828125 4.45703125 -5.125 2.8125 C-4.22007812 2.26207031 -3.31515625 1.71164062 -2.3828125 1.14453125 C-1.20332031 0.57798828 -1.20332031 0.57798828 0 0 Z " fill="#DEECF5" transform="translate(223,255)"/>
<path d="M0 0 C0.99 0.33 1.98 0.66 3 1 C0.03 4.96 0.03 4.96 -3 9 C-3.33 7.68 -3.66 6.36 -4 5 C-3.34 5 -2.68 5 -2 5 C-2 3.68 -2 2.36 -2 1 C-1.34 0.67 -0.68 0.34 0 0 Z " fill="#E0FAFE" transform="translate(273,234)"/>
<path d="M0 0 C0.33 0 0.66 0 1 0 C1 4.29 1 8.58 1 13 C0.01 13.495 0.01 13.495 -1 14 C-1.99 13.67 -2.98 13.34 -4 13 C-4 12.34 -4 11.68 -4 11 C-2.68 11 -1.36 11 0 11 C0 7.37 0 3.74 0 0 Z " fill="#146795" transform="translate(227,173)"/>
<path d="M0 0 C2.05883923 4.11767846 2.96165128 7.54993405 4 12 C3.01 11.67 2.02 11.34 1 11 C0.67 7.37 0.34 3.74 0 0 Z " fill="#3E5E7F" transform="translate(139,363)"/>
<path d="M0 0 C1.32 0.33 2.64 0.66 4 1 C2.71186658 1.83878455 1.41936744 2.67086783 0.125 3.5 C-0.59429687 3.9640625 -1.31359375 4.428125 -2.0546875 4.90625 C-4 6 -4 6 -6 6 C-6 5.01 -6 4.02 -6 3 C-4.35 3 -2.7 3 -1 3 C-0.67 2.01 -0.34 1.02 0 0 Z " fill="#72C7E2" transform="translate(343,308)"/>
<path d="M0 0 C-5.17578125 3.22265625 -5.17578125 3.22265625 -7 4 C-7.99 3.67 -8.98 3.34 -10 3 C-4.37755102 -1.45918367 -4.37755102 -1.45918367 0 0 Z " fill="#D0F5FC" transform="translate(224,285)"/>
<path d="M0 0 C2.31 0 4.62 0 7 0 C6.01 0.495 6.01 0.495 5 1 C4.34444881 3.52733235 4.34444881 3.52733235 4 6 C3.34 6 2.68 6 2 6 C2 5.01 2 4.02 2 3 C1.34 2.67 0.68 2.34 0 2 C0 1.34 0 0.68 0 0 Z " fill="#66C1E7" transform="translate(166,276)"/>
<path d="M0 0 C1.65 0 3.3 0 5 0 C3.25 3.875 3.25 3.875 1 5 C0.01 4.01 -0.98 3.02 -2 2 C-1.34 2 -0.68 2 0 2 C0 1.34 0 0.68 0 0 Z " fill="#16456E" transform="translate(245,233)"/>
<path d="M0 0 C2.475 0.99 2.475 0.99 5 2 C3.35 3.98 1.7 5.96 0 8 C-0.625 6.125 -0.625 6.125 -1 4 C-0.34 3.34 0.32 2.68 1 2 C0.67 1.34 0.34 0.68 0 0 Z " fill="#1C466A" transform="translate(252,225)"/>
<path d="M0 0 C0.66 0.33 1.32 0.66 2 1 C-0.51830747 4.12270126 -1.7261549 4.94523098 -5.75 5.75 C-7.35875 5.87375 -7.35875 5.87375 -9 6 C-6.45368965 3.02930459 -3.57769851 1.5224249 0 0 Z " fill="#DDF8FD" transform="translate(328,120)"/>
<path d="M0 0 C1.98 0.99 1.98 0.99 4 2 C3.67 3.65 3.34 5.3 3 7 C2.34 7 1.68 7 1 7 C0.67 4.69 0.34 2.38 0 0 Z " fill="#052E50" transform="translate(177,385)"/>
<path d="M0 0 C0.66 0.33 1.32 0.66 2 1 C1.01 3.31 0.02 5.62 -1 8 C-1.66 8 -2.32 8 -3 8 C-3.33 8.99 -3.66 9.98 -4 11 C-3.39301257 6.87248551 -1.96189209 3.6678852 0 0 Z " fill="#52758F" transform="translate(233,363)"/>
<path d="M0 0 C0.66 0 1.32 0 2 0 C4.29013653 3.4352048 4.17842973 4.985331 4 9 C3.67 9 3.34 9 3 9 C2.67 7.35 2.34 5.7 2 4 C1.01 4.33 0.02 4.66 -1 5 C-0.67 3.35 -0.34 1.7 0 0 Z " fill="#506D8B" transform="translate(355,363)"/>
<path d="M0 0 C-0.99 0.495 -0.99 0.495 -2 1 C-2.33 1.99 -2.66 2.98 -3 4 C-4.32 3.67 -5.64 3.34 -7 3 C-7 2.01 -7 1.02 -7 0 C-4.3333581 -1.33332095 -2.83319697 -0.67102033 0 0 Z " fill="#1B4569" transform="translate(195,360)"/>
<path d="M0 0 C0 3.19633438 -0.33810135 4.34096216 -2 7 C-4.125 8.75 -4.125 8.75 -6 10 C-6.66 9.67 -7.32 9.34 -8 9 C-5.36 6.03 -2.72 3.06 0 0 Z " fill="#60B7DC" transform="translate(258,255)"/>
<path d="M0 0 C1.134375 0.020625 2.26875 0.04125 3.4375 0.0625 C1.07457344 2.58838702 -0.22712511 3.95070837 -3.5625 5.0625 C-4.125 3.125 -4.125 3.125 -4.5625 1.0625 C-3.5625 0.0625 -3.5625 0.0625 0 0 Z " fill="#103D63" transform="translate(225.5625,250.9375)"/>
<path d="M0 0 C0.99 0.33 1.98 0.66 3 1 C3 1.66 3 2.32 3 3 C3.99 3 4.98 3 6 3 C5.67 4.32 5.34 5.64 5 7 C1.18461538 4.53846154 1.18461538 4.53846154 0.25 1.8125 C0.1675 1.214375 0.085 0.61625 0 0 Z " fill="#305777" transform="translate(230,397)"/>
<path d="M0 0 C-1.28524261 0.86380259 -2.57842419 1.71580369 -3.875 2.5625 C-4.59429687 3.03816406 -5.31359375 3.51382812 -6.0546875 4.00390625 C-6.69664062 4.33261719 -7.33859375 4.66132813 -8 5 C-8.66 4.67 -9.32 4.34 -10 4 C-10 3.34 -10 2.68 -10 2 C-8.71211992 1.46987262 -7.41953322 0.9511671 -6.125 0.4375 C-5.40570313 0.14746094 -4.68640625 -0.14257812 -3.9453125 -0.44140625 C-2 -1 -2 -1 0 0 Z " fill="#B5D1E1" transform="translate(202,268)"/>
<path d="M0 0 C0.33 0.66 0.66 1.32 1 2 C-1.33679861 5.83902629 -2.86281109 8.20953589 -7 10 C-6.02223933 8.51990357 -5.0427506 7.04094856 -4.0625 5.5625 C-3.51722656 4.73878906 -2.97195313 3.91507813 -2.41015625 3.06640625 C-1 1 -1 1 0 0 Z " fill="#D6E6EE" transform="translate(276,203)"/>
<path d="M0 0 C2.64 0.33 5.28 0.66 8 1 C5.08235 2.9451 3.37462715 3.45276317 0 4 C0 2.68 0 1.36 0 0 Z " fill="#5EBBDF" transform="translate(327,88)"/>
<path d="M0 0 C1.65 0 3.3 0 5 0 C4.01 1.485 4.01 1.485 3 3 C2.61500109 4.65549531 2.27206865 6.3222433 2 8 C0 6 0 6 -0.125 2.875 C-0.08375 1.92625 -0.0425 0.9775 0 0 Z " fill="#54738D" transform="translate(364,392)"/>
<path d="M0 0 C1.41377341 2.63904371 2.37240135 5.07120629 3 8 C3.66 8 4.32 8 5 8 C4.67 8.66 4.34 9.32 4 10 C3.34 10 2.68 10 2 10 C-0.4294516 6.3558226 -0.16179575 4.28758728 0 0 Z " fill="#41627F" transform="translate(188,387)"/>
<path d="M0 0 C0.86625 0.3403125 0.86625 0.3403125 1.75 0.6875 C0.986875 1.1 0.22375 1.5125 -0.5625 1.9375 C-3.1866642 3.64625809 -4.55321976 5.09767753 -6.25 7.6875 C-6.5 5.375 -6.5 5.375 -6.25 2.6875 C-4.11319077 0.39806154 -3.15626895 -0.43837069 0 0 Z " fill="#446683" transform="translate(196.25,367.3125)"/>
<path d="M0 0 C-1.32 0.33 -2.64 0.66 -4 1 C-4 1.66 -4 2.32 -4 3 C-5.98 3.66 -7.96 4.32 -10 5 C-9.1875 3.0625 -9.1875 3.0625 -8 1 C-5.07175348 0.02391783 -3.04386724 -0.08226668 0 0 Z " fill="#052C4B" transform="translate(381,359)"/>
<path d="M0 0 C1.65 0 3.3 0 5 0 C4.34 1.65 3.68 3.3 3 5 C2.01 4.67 1.02 4.34 0 4 C0 2.68 0 1.36 0 0 Z " fill="#073256" transform="translate(103,339)"/>
<path d="M0 0 C2 1 2 1 3 3 C1.68 3.99 0.36 4.98 -1 6 C-1.99 5.34 -2.98 4.68 -4 4 C-2.68 2.68 -1.36 1.36 0 0 Z " fill="#54B5DC" transform="translate(240,272)"/>
<path d="M0 0 C0.33 0.99 0.66 1.98 1 3 C-0.375 4.5 -0.375 4.5 -2 6 C-2.66 6 -3.32 6 -4 6 C-4 6.66 -4 7.32 -4 8 C-4.66 7.67 -5.32 7.34 -6 7 C-5.67 6.34 -5.34 5.68 -5 5 C-4.34 5 -3.68 5 -3 5 C-2.5359375 4.0409375 -2.5359375 4.0409375 -2.0625 3.0625 C-1 1 -1 1 0 0 Z " fill="#44A7D6" transform="translate(223,156)"/>
<path d="M0 0 C0.99 0.33 1.98 0.66 3 1 C2.34 1.66 1.68 2.32 1 3 C1.66 3.33 2.32 3.66 3 4 C2.67 4.66 2.34 5.32 2 6 C0.02 5.34 -1.96 4.68 -4 4 C-3.01 3.67 -2.02 3.34 -1 3 C-0.67 2.01 -0.34 1.02 0 0 Z " fill="#456C8A" transform="translate(389,385)"/>
<path d="M0 0 C0.99 0 1.98 0 3 0 C2.67 0.99 2.34 1.98 2 3 C1.34 2.67 0.68 2.34 0 2 C0 1.34 0 0.68 0 0 Z M1 3 C1.66 3.66 2.32 4.32 3 5 C2.01 5.99 1.02 6.98 0 8 C-0.33 6.68 -0.66 5.36 -1 4 C-0.34 3.67 0.32 3.34 1 3 Z " fill="#042D56" transform="translate(179,371)"/>
<path d="M0 0 C1.15941038 3.47823115 0.70820884 5.45895578 0 9 C-0.99 8.67 -1.98 8.34 -3 8 C-1.125 2.25 -1.125 2.25 0 0 Z " fill="#4FAFD5" transform="translate(303,190)"/>
<path d="M0 0 C0.99 0 1.98 0 3 0 C4.75 2.3125 4.75 2.3125 6 5 C5.67 5.99 5.34 6.98 5 8 C4.34 8 3.68 8 3 8 C2.87625 6.865625 2.7525 5.73125 2.625 4.5625 C2.41875 3.386875 2.2125 2.21125 2 1 C1.34 0.67 0.68 0.34 0 0 Z " fill="#5EB8D5" transform="translate(320,157)"/>
</svg>
